<svg width="183" height="70" viewBox="0 0 183 70" fill="none" xmlns="http://www.w3.org/2000/svg">
<path d="M16.1811 60.9431C16.0886 60.9431 15.9962 60.9432 15.9037 60.8967C13.5922 59.9668 11.4193 58.7581 9.47754 57.1775C7.5358 55.6434 5.87143 53.8302 4.43825 51.7847C1.52565 47.5542 0 42.5798 0 37.4194C0 34.0257 0.647246 30.7249 1.98797 27.6101C3.23622 24.5883 5.08549 21.8919 7.35086 19.6139C9.6624 17.2894 12.3439 15.4764 15.349 14.2211C18.4465 12.9194 21.7289 12.2686 25.1039 12.2686C28.4788 12.2686 31.7612 12.9659 34.905 14.3141C37.9101 15.6158 40.6377 17.4754 42.9955 19.7998C45.3534 22.1708 47.2026 24.8673 48.4971 27.8891C49.8378 31.0039 50.5313 34.3511 50.5313 37.7449C50.5313 40.9991 49.7454 44.4393 48.3121 47.6007C47.0639 50.39 45.3071 52.854 43.4578 54.5275C43.3654 54.6206 43.2267 54.7135 43.1343 54.8065C42.0709 55.7363 41.3312 56.4336 40.1754 56.6196C38.9733 56.8056 37.494 56.3872 34.9974 55.3179C34.7201 55.2249 28.9411 52.1101 28.2938 51.7847L28.6175 51.1803C31.1602 52.5285 35.0436 54.6206 35.2748 54.7135C39.9905 56.7591 40.7301 56.1082 42.6719 54.3416C42.7644 54.2486 42.8568 54.1557 42.9955 54.0627C46.278 51.0874 49.8378 44.7648 49.8378 37.7913C49.8378 24.4024 38.5573 13.0124 25.1501 13.0124C18.6314 13.0124 12.4825 15.5228 7.9056 20.1718C3.28245 24.8207 0.739708 30.9574 0.739708 37.5124C0.739708 47.6471 6.79607 56.6196 16.2274 60.2923C16.2736 60.2923 16.3198 60.2923 16.3198 60.2458L25.2887 46.7174L27.6929 47.5542L27.4616 48.205L25.5662 47.5542L16.8283 60.6177C16.6897 60.8037 16.4585 60.9431 16.1811 60.9431Z" fill="#3C424A"/>
<path d="M24.1355 49.0423C24.5516 48.3914 25.43 48.2055 26.1235 48.5774C26.1235 48.5774 26.1235 48.5774 26.1697 48.5774C26.1697 48.5774 31.3939 51.4133 33.9366 52.4361C34.6763 52.715 35.7859 52.4361 36.2945 51.8782C39.7619 48.2985 41.8885 43.1381 41.8885 37.6524C41.8885 25.2396 30.0994 15.6163 17.2008 19.4749C11.4218 21.1951 6.84483 25.658 5.0418 31.4227C1.34326 43.0916 8.50919 53.9702 18.9113 56.2482C19.0962 56.2947 19.2811 56.2017 19.3737 56.0622L24.1355 49.0423Z" fill="#3C424A"/>
<path d="M20.9893 66.3811L17.1983 66.0557C16.2737 66.0092 15.7651 64.9399 16.3199 64.1961L24.8266 51.551C25.2427 50.9466 26.306 50.2492 26.9995 50.5282L31.1603 52.5272L23.6245 64.9864C23.0698 65.9162 22.0527 66.4741 20.9893 66.3811Z" fill="#3C424A"/>
<path d="M87.1399 31.4988C90.4468 29.8361 92.1519 27.0303 92.1519 23.653C92.1519 18.1454 87.5016 14.1445 77.5291 14.1445H58.2043V50.5157H78.5626C88.535 50.5157 93.857 46.8266 93.857 40.4876C93.857 36.175 91.3769 33.0575 87.1399 31.4988ZM75.8757 22.7177C78.6142 22.7177 79.8543 23.653 79.8543 25.4196C79.8543 27.1862 78.6142 28.1214 75.8757 28.1214H70.1919V22.7177H75.8757ZM77.5291 41.9425H70.1919V36.227H77.5291C80.216 36.227 81.5595 37.2142 81.5595 39.0847C81.5595 40.9552 80.216 41.9425 77.5291 41.9425ZM115.582 14.1445H98.1687V50.5157H110.363V41.5788H115.582C125.657 41.5788 132.065 36.279 132.065 27.8616C132.065 19.4443 125.657 14.1445 115.582 14.1445ZM114.807 32.1223H110.363V23.601H114.807C118.165 23.601 119.767 25.2117 119.767 27.8616C119.767 30.5115 118.165 32.1223 114.807 32.1223ZM179.467 50.5157L179.363 14.1445H169.339L157.868 33.5251L146.087 14.1445H136.063V50.5157H147.172V34.5124L155.026 47.2423H160.4L168.254 33.9408L168.357 50.5157H179.467Z" fill="#3C424A"/>
<path d="M63.4113 66.5363C62.3971 66.5363 61.4785 66.315 60.6556 65.8724C59.8423 65.4201 59.2011 64.7995 58.7323 64.0105C58.273 63.2215 58.0433 62.3315 58.0433 61.3404C58.0433 60.3494 58.2778 59.4593 58.7466 58.6703C59.2155 57.8813 59.8566 57.2655 60.6699 56.8229C61.4929 56.3706 62.4114 56.1445 63.4257 56.1445C64.2486 56.1445 64.9997 56.2889 65.6791 56.5775C66.3585 56.8662 66.9326 57.2847 67.4015 57.8332L66.1958 58.9734C65.4686 58.1844 64.5739 57.7899 63.5118 57.7899C62.8229 57.7899 62.2057 57.9438 61.6603 58.2517C61.1149 58.55 60.6891 58.9686 60.3829 59.5074C60.0766 60.0463 59.9236 60.6572 59.9236 61.3404C59.9236 62.0236 60.0766 62.6345 60.3829 63.1734C60.6891 63.7123 61.1149 64.1356 61.6603 64.4435C62.2057 64.7418 62.8229 64.8909 63.5118 64.8909C64.5739 64.8909 65.4686 64.4916 66.1958 63.693L67.4015 64.8476C66.9326 65.3961 66.3537 65.8146 65.6647 66.1033C64.9854 66.392 64.2343 66.5363 63.4113 66.5363ZM86.2691 56.2889H88.135V64.8043H93.3882V66.392H86.2691V56.2889ZM116.453 66.5363C115.429 66.5363 114.506 66.315 113.683 65.8724C112.859 65.4201 112.213 64.7995 111.745 64.0105C111.276 63.2119 111.042 62.3219 111.042 61.3404C111.042 60.359 111.276 59.4737 111.745 58.6847C112.213 57.8861 112.859 57.2655 113.683 56.8229C114.506 56.3706 115.429 56.1445 116.453 56.1445C117.477 56.1445 118.4 56.3706 119.223 56.8229C120.046 57.2655 120.692 57.8813 121.16 58.6703C121.629 59.4593 121.864 60.3494 121.864 61.3404C121.864 62.3315 121.629 63.2215 121.16 64.0105C120.692 64.7995 120.046 65.4201 119.223 65.8724C118.4 66.315 117.477 66.5363 116.453 66.5363ZM116.453 64.8909C117.122 64.8909 117.725 64.7418 118.261 64.4435C118.797 64.1356 119.218 63.7123 119.524 63.1734C119.831 62.6249 119.983 62.0139 119.983 61.3404C119.983 60.6669 119.831 60.0607 119.524 59.5219C119.218 58.9734 118.797 58.55 118.261 58.2517C117.725 57.9438 117.122 57.7899 116.453 57.7899C115.783 57.7899 115.18 57.9438 114.644 58.2517C114.108 58.55 113.688 58.9734 113.381 59.5219C113.075 60.0607 112.922 60.6669 112.922 61.3404C112.922 62.0139 113.075 62.6249 113.381 63.1734C113.688 63.7123 114.108 64.1356 114.644 64.4435C115.18 64.7418 115.783 64.8909 116.453 64.8909ZM145.242 66.5363C143.855 66.5363 142.773 66.1466 141.998 65.3672C141.223 64.5782 140.835 63.4525 140.835 61.9899V56.2889H142.701V61.9177C142.701 63.8999 143.553 64.8909 145.256 64.8909C146.95 64.8909 147.797 63.8999 147.797 61.9177V56.2889H149.634V61.9899C149.634 63.4525 149.246 64.5782 148.471 65.3672C147.705 66.1466 146.629 66.5363 145.242 66.5363ZM169.327 56.2889H173.719C174.791 56.2889 175.742 56.5005 176.575 56.9239C177.407 57.3376 178.053 57.9294 178.513 58.6992C178.972 59.4593 179.202 60.3397 179.202 61.3404C179.202 62.3411 178.972 63.2263 178.513 63.9961C178.053 64.7562 177.407 65.3479 176.575 65.7713C175.742 66.1851 174.791 66.392 173.719 66.392H169.327V56.2889ZM173.633 64.8043C174.37 64.8043 175.015 64.6648 175.57 64.3858C176.135 64.0971 176.566 63.693 176.862 63.1734C177.168 62.6442 177.321 62.0332 177.321 61.3404C177.321 60.6476 177.168 60.0414 176.862 59.5219C176.566 58.9927 176.135 58.5885 175.57 58.3095C175.015 58.0208 174.37 57.8765 173.633 57.8765H171.193V64.8043H173.633Z" fill="#3C424A"/>
</svg>
