<svg width="443" height="169" viewBox="0 0 443 169" fill="none" xmlns="http://www.w3.org/2000/svg">
<path d="M39.1706 147.133C38.9468 147.133 38.7231 147.133 38.4991 147.02C32.9034 144.775 27.6434 141.857 22.9429 138.041C18.2424 134.337 14.2134 129.96 10.7439 125.021C3.69323 114.808 0 102.798 0 90.3395C0 82.1461 1.56683 74.177 4.8124 66.657C7.83413 59.3615 12.3108 52.8517 17.7947 47.352C23.3904 41.74 29.8817 37.3627 37.1562 34.3322C44.6546 31.1895 52.6006 29.6182 60.7706 29.6182C68.9404 29.6182 76.8864 31.3017 84.4968 34.5566C91.7714 37.6993 98.3743 42.189 104.082 47.8008C109.79 53.525 114.266 60.035 117.4 67.3306C120.646 74.8506 122.324 82.9317 122.324 91.1253C122.324 98.982 120.422 107.288 116.952 114.92C113.931 121.654 109.678 127.603 105.201 131.643C104.977 131.868 104.642 132.092 104.418 132.317C101.844 134.562 100.053 136.245 97.2552 136.694C94.3453 137.143 90.7641 136.133 84.7205 133.552C84.0491 133.327 70.0595 125.807 68.4927 125.021L69.2762 123.562C75.4314 126.817 84.8324 131.868 85.392 132.092C96.8075 137.031 98.5981 135.46 103.299 131.195C103.523 130.97 103.746 130.746 104.082 130.521C112.028 123.338 120.646 108.073 120.646 91.2375C120.646 58.9127 93.3382 31.4139 60.8825 31.4139C45.1023 31.4139 30.2173 37.4749 19.1376 48.6988C7.94605 59.9226 1.79066 74.7384 1.79066 90.5641C1.79066 115.032 16.4517 136.694 39.2826 145.561C39.3945 145.561 39.5064 145.561 39.5064 145.449L61.2181 112.787L67.0379 114.808L66.4781 116.379L61.8897 114.808L40.7374 146.347C40.4018 146.796 39.8422 147.133 39.1706 147.133Z" fill="#309195"/>
<path d="M58.4243 118.402C59.4315 116.83 61.5579 116.381 63.2366 117.279C63.2366 117.279 63.2366 117.279 63.3485 117.279C63.3485 117.279 75.9951 124.126 82.1505 126.595C83.9411 127.269 86.6271 126.595 87.8582 125.248C96.252 116.606 101.4 104.147 101.4 90.9032C101.4 60.9353 72.8614 37.7018 41.6368 47.0177C27.6472 51.1706 16.5676 61.9455 12.2028 75.8631C3.24954 104.035 20.5966 130.299 45.7778 135.799C46.2253 135.911 46.673 135.687 46.8969 135.35L58.4243 118.402Z" fill="#309195"/>
<path d="M50.8137 160.263L41.6366 159.478C39.3983 159.365 38.1671 156.784 39.5102 154.988L60.1028 124.459C61.11 123 63.6841 121.316 65.3628 121.99L75.4352 126.816L57.1929 156.896C55.85 159.141 53.3877 160.488 50.8137 160.263Z" fill="#309195"/>
<path d="M210.946 76.047C218.951 72.0328 223.079 65.2589 223.079 57.105C223.079 43.8081 211.821 34.1489 187.68 34.1489H140.9V121.959H190.182C214.323 121.959 227.206 113.053 227.206 97.7487C227.206 87.3369 221.203 79.8103 210.946 76.047ZM183.678 54.8471C190.307 54.8471 193.309 57.105 193.309 61.3701C193.309 65.6352 190.307 67.8932 183.678 67.8932H169.919V54.8471H183.678ZM187.68 101.261H169.919V87.4623H187.68C194.185 87.4623 197.437 89.8457 197.437 94.3617C197.437 98.8777 194.185 101.261 187.68 101.261ZM279.797 34.1489H237.644V121.959H267.163V100.383H279.797C304.188 100.383 319.698 87.5878 319.698 67.266C319.698 46.9441 304.188 34.1489 279.797 34.1489ZM277.92 77.5523H267.163V56.9796H277.92C286.051 56.9796 289.928 60.8683 289.928 67.266C289.928 73.6636 286.051 77.5523 277.92 77.5523ZM434.447 121.959L434.197 34.1489H409.931L382.163 80.9393L353.644 34.1489H329.378V121.959H356.271V83.3227L375.283 114.056H388.292L407.304 81.9428L407.554 121.959H434.447Z" fill="#309195"/>
<path d="M153.505 160.637C151.05 160.637 148.826 160.103 146.834 159.035C144.865 157.943 143.313 156.444 142.178 154.54C141.066 152.635 140.51 150.486 140.51 148.093C140.51 145.7 141.078 143.552 142.213 141.647C143.348 139.742 144.9 138.255 146.869 137.187C148.861 136.095 151.085 135.549 153.54 135.549C155.532 135.549 157.35 135.897 158.995 136.594C160.64 137.291 162.029 138.302 163.164 139.626L160.246 142.379C158.485 140.474 156.32 139.521 153.748 139.521C152.081 139.521 150.587 139.893 149.266 140.636C147.946 141.356 146.915 142.367 146.174 143.668C145.433 144.969 145.062 146.444 145.062 148.093C145.062 149.743 145.433 151.218 146.174 152.519C146.915 153.819 147.946 154.841 149.266 155.585C150.587 156.305 152.081 156.665 153.748 156.665C156.32 156.665 158.485 155.701 160.246 153.773L163.164 156.561C162.029 157.885 160.628 158.895 158.96 159.592C157.315 160.289 155.497 160.637 153.505 160.637ZM208.838 135.897H213.355V156.456H226.072V160.289H208.838V135.897ZM281.906 160.637C279.427 160.637 277.193 160.103 275.2 159.035C273.207 157.943 271.644 156.444 270.509 154.54C269.375 152.611 268.807 150.463 268.807 148.093C268.807 145.724 269.375 143.586 270.509 141.682C271.644 139.753 273.207 138.255 275.2 137.187C277.193 136.095 279.427 135.549 281.906 135.549C284.385 135.549 286.619 136.095 288.611 137.187C290.604 138.255 292.168 139.742 293.302 141.647C294.437 143.552 295.005 145.7 295.005 148.093C295.005 150.486 294.437 152.635 293.302 154.54C292.168 156.444 290.604 157.943 288.611 159.035C286.619 160.103 284.385 160.637 281.906 160.637ZM281.906 156.665C283.527 156.665 284.986 156.305 286.284 155.585C287.581 154.841 288.599 153.819 289.341 152.519C290.083 151.194 290.453 149.719 290.453 148.093C290.453 146.467 290.083 145.004 289.341 143.703C288.599 142.379 287.581 141.356 286.284 140.636C284.986 139.893 283.527 139.521 281.906 139.521C280.285 139.521 278.826 139.893 277.528 140.636C276.23 141.356 275.212 142.379 274.47 143.703C273.728 145.004 273.358 146.467 273.358 148.093C273.358 149.719 273.728 151.194 274.47 152.519C275.212 153.819 276.23 154.841 277.528 155.585C278.826 156.305 280.285 156.665 281.906 156.665ZM351.597 160.637C348.239 160.637 345.621 159.697 343.745 157.815C341.869 155.91 340.931 153.192 340.931 149.661V135.897H345.448V149.487C345.448 154.272 347.51 156.665 351.632 156.665C355.732 156.665 357.782 154.272 357.782 149.487V135.897H362.229V149.661C362.229 153.192 361.291 155.91 359.415 157.815C357.561 159.697 354.956 160.637 351.597 160.637ZM409.901 135.897H420.533C423.129 135.897 425.432 136.408 427.448 137.43C429.463 138.429 431.026 139.858 432.138 141.716C433.25 143.552 433.806 145.677 433.806 148.093C433.806 150.509 433.25 152.646 432.138 154.505C431.026 156.34 429.463 157.768 427.448 158.791C425.432 159.79 423.129 160.289 420.533 160.289H409.901V135.897ZM420.325 156.456C422.109 156.456 423.673 156.119 425.016 155.446C426.383 154.749 427.425 153.773 428.143 152.519C428.884 151.241 429.254 149.766 429.254 148.093C429.254 146.421 428.884 144.957 428.143 143.703C427.425 142.425 426.383 141.449 425.016 140.776C423.673 140.079 422.109 139.73 420.325 139.73H414.418V156.456H420.325Z" fill="#309195"/>
</svg>
