<svg width="41" height="41" viewBox="0 0 41 41" fill="none" xmlns="http://www.w3.org/2000/svg">
<g clip-path="url(#clip0)">
<path d="M39.4228 33.5053C39.4228 36.244 37.2047 38.4621 34.466 38.4621H6.46269C3.72402 38.4621 1.50586 36.244 1.50586 33.5053V5.49395C1.50586 2.75527 3.72402 0.537109 6.46269 0.537109H34.466C37.2047 0.537109 39.4228 2.75527 39.4228 5.49395V33.5053Z" fill="#309195" stroke="#FBFAFA" stroke-width="2" stroke-miterlimit="10"/>
<path d="M22.3125 15.875V13.717C22.3125 12.7428 22.5277 12.25 24.04 12.25H25.9375V8.625H22.7713C18.8914 8.625 17.6113 10.4035 17.6113 13.4564V15.875H15.0625V19.5H17.6113V30.375H22.3125V19.5H25.507L25.9375 15.875H22.3125Z" fill="#FBFAFA"/>
</g>
<defs>
<clipPath id="clip0">
<rect width="41" height="41" fill="white"/>
</clipPath>
</defs>
</svg>
