<svg width="178" height="178" viewBox="0 0 178 178" fill="none" xmlns="http://www.w3.org/2000/svg">
<rect width="178" height="178" fill="#FFCC00"/>
<path d="M142.128 89.5C142.128 119.403 118.18 143.5 88.8141 143.5C59.4486 143.5 35.5 119.403 35.5 89.5C35.5 59.5971 59.4486 35.5 88.8141 35.5C118.18 35.5 142.128 59.5971 142.128 89.5Z" stroke="#FA5C45" stroke-width="15"/>
<rect x="96.1309" y="60.0073" width="14.632" height="29.2639" transform="rotate(-180 96.1309 60.0073)" fill="#FA5C45"/>
<rect x="118.078" y="97.0447" width="14.632" height="29.2639" transform="rotate(-90 118.078 97.0447)" fill="#FA5C45"/>
<rect x="96.1309" y="148.257" width="14.632" height="29.2639" transform="rotate(-180 96.1309 148.257)" fill="#FA5C45"/>
<rect x="29.8281" y="97.0447" width="14.632" height="29.2639" transform="rotate(-90 29.8281 97.0447)" fill="#FA5C45"/>
<circle cx="88.8154" cy="89.7285" r="8.23048" fill="white"/>
</svg>
