<svg width="178" height="178" viewBox="0 0 178 178" fill="none" xmlns="http://www.w3.org/2000/svg">
<rect width="178" height="178" fill="#FFCC00"/>
<rect x="41" y="65" width="89" height="56" fill="white"/>
<path d="M47.5 74C47.5 80.4377 42.4902 85.5 36.5 85.5C30.5098 85.5 25.5 80.4377 25.5 74C25.5 67.5623 30.5098 62.5 36.5 62.5C42.4902 62.5 47.5 67.5623 47.5 74Z" stroke="#309195" stroke-width="5"/>
<circle cx="86.5" cy="31.5" r="11" stroke="#309195" stroke-width="5"/>
<circle cx="51.5" cy="143.5" r="11" stroke="#309195" stroke-width="5"/>
<circle cx="152.5" cy="68.5" r="11" stroke="#309195" stroke-width="5"/>
<circle cx="129.5" cy="137.5" r="11" stroke="#309195" stroke-width="5"/>
<ellipse cx="85.5" cy="93" rx="20.5" ry="21" fill="#309195"/>
<path d="M86 43V88" stroke="#309195" stroke-width="5"/>
<path d="M80.3527 101.952L57.4424 134.779" stroke="#309195" stroke-width="5"/>
<path d="M47.217 78.8116L74.9324 89.5746" stroke="#309195" stroke-width="10"/>
<path d="M91.6303 100.876L119.87 128.322" stroke="#309195" stroke-width="5"/>
<path d="M141.395 74.2369L96.7275 88.7671" stroke="#309195" stroke-width="5"/>
</svg>
