<svg width="178" height="178" viewBox="0 0 178 178" fill="none" xmlns="http://www.w3.org/2000/svg">
<rect width="178" height="178" fill="#309195"/>
<circle cx="56.5963" cy="32.1403" r="7.59631" fill="white"/>
<circle cx="56.5963" cy="122.316" r="7.59631" fill="white"/>
<circle cx="56.5963" cy="77.2284" r="7.59631" fill="white"/>
<circle cx="56.5963" cy="167.404" r="7.59631" fill="white"/>
<circle cx="79.1403" cy="32.1403" r="7.59631" fill="white"/>
<circle cx="79.1403" cy="122.316" r="7.59631" fill="white"/>
<circle cx="79.1403" cy="77.2284" r="7.59631" fill="white"/>
<circle cx="79.1403" cy="167.404" r="7.59631" fill="white"/>
<circle cx="101.68" cy="32.1403" r="7.59631" fill="white"/>
<circle cx="101.68" cy="122.316" r="7.59631" fill="white"/>
<circle cx="101.68" cy="77.2284" r="7.59631" fill="white"/>
<circle cx="101.68" cy="167.404" r="7.59631" fill="white"/>
<circle cx="124.228" cy="32.1403" r="7.59631" fill="white"/>
<circle cx="124.228" cy="122.316" r="7.59631" fill="white"/>
<circle cx="124.228" cy="77.2284" r="7.59631" fill="white"/>
<circle cx="124.228" cy="167.404" r="7.59631" fill="white"/>
<circle cx="146.772" cy="32.1403" r="7.59631" fill="white"/>
<circle cx="146.772" cy="122.316" r="7.59631" fill="white"/>
<circle cx="146.772" cy="77.2284" r="7.59631" fill="white"/>
<circle cx="146.772" cy="167.404" r="7.59631" fill="white"/>
<circle cx="169.316" cy="32.1403" r="7.59631" fill="white"/>
<circle cx="169.316" cy="122.316" r="7.59631" fill="white"/>
<circle cx="169.316" cy="77.2284" r="7.59631" fill="white"/>
<circle cx="169.316" cy="167.404" r="7.59631" fill="white"/>
<circle cx="56.5963" cy="9.59631" r="7.59631" fill="white"/>
<circle cx="56.5963" cy="99.7716" r="7.59631" fill="white"/>
<circle cx="56.5963" cy="54.6844" r="7.59631" fill="white"/>
<circle cx="56.5963" cy="144.859" r="7.59631" fill="white"/>
<circle cx="79.1403" cy="9.59631" r="7.59631" fill="white"/>
<circle cx="79.1403" cy="99.7716" r="7.59631" fill="white"/>
<circle cx="79.1403" cy="54.6844" r="7.59631" fill="white"/>
<circle cx="79.1403" cy="144.859" r="7.59631" fill="white"/>
<circle cx="101.68" cy="9.59631" r="7.59631" fill="white"/>
<circle cx="101.68" cy="99.7716" r="7.59631" fill="white"/>
<circle cx="101.68" cy="54.6844" r="7.59631" fill="white"/>
<circle cx="101.68" cy="144.859" r="7.59631" fill="white"/>
<circle cx="124.228" cy="9.59631" r="7.59631" fill="white"/>
<circle cx="124.228" cy="99.7716" r="7.59631" fill="white"/>
<circle cx="124.228" cy="54.6844" r="7.59631" fill="white"/>
<circle cx="124.228" cy="144.859" r="7.59631" fill="white"/>
<circle cx="146.772" cy="9.59631" r="7.59631" fill="white"/>
<circle cx="146.772" cy="99.7716" r="7.59631" fill="white"/>
<circle cx="146.772" cy="54.6844" r="7.59631" fill="white"/>
<circle cx="146.772" cy="144.859" r="7.59631" fill="white"/>
<circle cx="169.316" cy="9.59631" r="7.59631" fill="white"/>
<circle cx="169.316" cy="99.7716" r="7.59631" fill="white"/>
<circle cx="169.316" cy="54.6844" r="7.59631" fill="white"/>
<circle cx="169.316" cy="144.859" r="7.59631" fill="white"/>
</svg>
