<svg width="178" height="178" viewBox="0 0 178 178" fill="none" xmlns="http://www.w3.org/2000/svg">
<rect width="178" height="178" fill="#309195"/>
<mask id="path-2-inside-1" fill="white">
<path fill-rule="evenodd" clip-rule="evenodd" d="M132.824 144.998L144.998 132.824L101.173 88.9993L144.998 45.1747L132.824 33.0011L88.9993 76.8257L45.1737 33L33 45.1736L76.8257 88.9993L33.0001 132.825L45.1737 144.999L88.9993 101.173L132.824 144.998Z"/>
</mask>
<path d="M144.998 132.824L148.533 136.359L152.069 132.824L148.533 129.288L144.998 132.824ZM132.824 144.998L129.288 148.533L132.824 152.069L136.359 148.533L132.824 144.998ZM101.173 88.9993L97.6375 85.4638L94.1019 88.9993L97.6375 92.5349L101.173 88.9993ZM144.998 45.1747L148.533 48.7103L152.069 45.1747L148.533 41.6392L144.998 45.1747ZM132.824 33.0011L136.359 29.4655L132.824 25.93L129.288 29.4655L132.824 33.0011ZM88.9993 76.8257L85.4638 80.3612L88.9993 83.8968L92.5349 80.3612L88.9993 76.8257ZM45.1737 33L48.7092 29.4645L45.1737 25.9289L41.6381 29.4645L45.1737 33ZM33 45.1736L29.4645 41.6381L25.9289 45.1736L29.4645 48.7092L33 45.1736ZM76.8257 88.9993L80.3612 92.5349L83.8968 88.9993L80.3612 85.4638L76.8257 88.9993ZM33.0001 132.825L29.4645 129.289L25.929 132.825L29.4645 136.361L33.0001 132.825ZM45.1737 144.999L41.6382 148.534L45.1737 152.07L48.7092 148.534L45.1737 144.999ZM88.9993 101.173L92.5349 97.6375L88.9993 94.1019L85.4638 97.6375L88.9993 101.173ZM141.462 129.288L129.288 141.462L136.359 148.533L148.533 136.359L141.462 129.288ZM97.6375 92.5349L141.462 136.359L148.533 129.288L104.709 85.4638L97.6375 92.5349ZM141.462 41.6392L97.6375 85.4638L104.709 92.5349L148.533 48.7103L141.462 41.6392ZM129.288 36.5366L141.462 48.7103L148.533 41.6392L136.359 29.4655L129.288 36.5366ZM92.5349 80.3612L136.359 36.5366L129.288 29.4655L85.4638 73.2902L92.5349 80.3612ZM41.6381 36.5355L85.4638 80.3612L92.5349 73.2902L48.7092 29.4645L41.6381 36.5355ZM36.5355 48.7092L48.7092 36.5355L41.6381 29.4645L29.4645 41.6381L36.5355 48.7092ZM80.3612 85.4638L36.5355 41.6381L29.4645 48.7092L73.2902 92.5349L80.3612 85.4638ZM36.5356 136.361L80.3612 92.5349L73.2902 85.4638L29.4645 129.289L36.5356 136.361ZM48.7092 141.463L36.5356 129.289L29.4645 136.361L41.6382 148.534L48.7092 141.463ZM85.4638 97.6375L41.6382 141.463L48.7092 148.534L92.5349 104.709L85.4638 97.6375ZM136.359 141.462L92.5349 97.6375L85.4638 104.709L129.288 148.533L136.359 141.462Z" fill="white" mask="url(#path-2-inside-1)"/>
<rect x="132.844" y="40.0317" width="7.20296" height="69.119" transform="rotate(45 132.844 40.0317)" fill="#FFCC00"/>
<rect x="94.0635" y="88.9365" width="7.20365" height="43.2159" transform="rotate(135 94.0635 88.9365)" fill="#FFCC00"/>
</svg>
