<svg width="41" height="41" viewBox="0 0 41 41" fill="none" xmlns="http://www.w3.org/2000/svg">
<g clip-path="url(#clip0)">
<path d="M39.4229 33.5045C39.4229 36.2432 37.2047 38.4614 34.466 38.4614H6.4627C3.72402 38.4614 1.50586 36.2432 1.50586 33.5045V5.49321C1.50586 2.75454 3.72402 0.536377 6.4627 0.536377H34.466C37.2047 0.536377 39.4229 2.75454 39.4229 5.49321V33.5045Z" fill="#309195" stroke="#FBFAFA" stroke-width="2" stroke-miterlimit="10"/>
<path d="M20.5082 11.2031C23.5432 11.2031 23.9035 11.2111 25.1047 11.2671C26.2098 11.3152 26.8184 11.4994 27.2188 11.6595C27.7473 11.8677 28.1316 12.116 28.524 12.5083C28.9244 12.9087 29.1647 13.2851 29.3729 13.8136C29.525 14.214 29.7172 14.8146 29.7652 15.9277C29.8213 17.1289 29.8293 17.4892 29.8293 20.5242C29.8293 23.5591 29.8213 23.9195 29.7652 25.1207C29.7172 26.2257 29.533 26.8343 29.3729 27.2347C29.1647 27.7632 28.9164 28.1476 28.524 28.54C28.1236 28.9404 27.7473 29.1806 27.2188 29.3888C26.8184 29.541 26.2178 29.7332 25.1047 29.7812C23.9035 29.8373 23.5432 29.8453 20.5082 29.8453C17.4732 29.8453 17.1129 29.8373 15.9117 29.7812C14.8066 29.7332 14.198 29.549 13.7977 29.3888C13.2691 29.1806 12.8848 28.9324 12.4924 28.54C12.092 28.1396 11.8518 27.7632 11.6436 27.2347C11.4914 26.8343 11.2992 26.2337 11.2512 25.1207C11.1951 23.9195 11.1871 23.5591 11.1871 20.5242C11.1871 17.4892 11.1951 17.1289 11.2512 15.9277C11.2992 14.8226 11.4834 14.214 11.6436 13.8136C11.8518 13.2851 12.1 12.9007 12.4924 12.5083C12.8928 12.108 13.2691 11.8677 13.7977 11.6595C14.198 11.5074 14.7986 11.3152 15.9117 11.2671C17.1129 11.2111 17.4732 11.2031 20.5082 11.2031ZM20.5082 9.15308C17.4172 9.15308 17.0328 9.16909 15.8156 9.22515C14.6064 9.2812 13.7816 9.47339 13.0529 9.75366C12.3082 10.0419 11.6676 10.4343 11.035 11.0669C10.4023 11.6996 10.01 12.3322 9.72168 13.0849C9.44141 13.8056 9.24922 14.6384 9.19316 15.8476C9.13711 17.0648 9.12109 17.4492 9.12109 20.5402C9.12109 23.6312 9.13711 24.0156 9.19316 25.2328C9.24922 26.4419 9.44141 27.2667 9.72168 27.9955C10.01 28.7402 10.4023 29.3808 11.035 30.0134C11.6676 30.646 12.3002 31.0384 13.0529 31.3267C13.7736 31.607 14.6064 31.7992 15.8156 31.8552C17.0328 31.9113 17.4172 31.9273 20.5082 31.9273C23.5992 31.9273 23.9836 31.9113 25.2008 31.8552C26.41 31.7992 27.2348 31.607 27.9635 31.3267C28.7082 31.0384 29.3488 30.646 29.9815 30.0134C30.6141 29.3808 31.0065 28.7482 31.2947 27.9955C31.575 27.2748 31.7672 26.4419 31.8232 25.2328C31.8793 24.0156 31.8953 23.6312 31.8953 20.5402C31.8953 17.4492 31.8793 17.0648 31.8232 15.8476C31.7672 14.6384 31.575 13.8136 31.2947 13.0849C31.0065 12.3402 30.6141 11.6996 29.9815 11.0669C29.3488 10.4343 28.7162 10.0419 27.9635 9.75366C27.2428 9.47339 26.41 9.2812 25.2008 9.22515C23.9836 9.16909 23.5992 9.15308 20.5082 9.15308Z" fill="#FBFAFA"/>
<path d="M20.5076 14.6865C17.2805 14.6865 14.6699 17.3051 14.6699 20.5242C14.6699 23.7434 17.2885 26.3619 20.5076 26.3619C23.7268 26.3619 26.3453 23.7434 26.3453 20.5242C26.3453 17.3051 23.7348 14.6865 20.5076 14.6865ZM20.5076 24.3199C18.4096 24.3199 16.7199 22.6223 16.7199 20.5322C16.7199 18.4422 18.4176 16.7365 20.5076 16.7365C22.5977 16.7365 24.2953 18.4342 24.2953 20.5242C24.2953 22.6143 22.6057 24.3199 20.5076 24.3199Z" fill="#FBFAFA"/>
<path d="M26.5859 15.8157C27.3378 15.8157 27.9473 15.2062 27.9473 14.4543C27.9473 13.7025 27.3378 13.093 26.5859 13.093C25.8341 13.093 25.2246 13.7025 25.2246 14.4543C25.2246 15.2062 25.8341 15.8157 26.5859 15.8157Z" fill="#FBFAFA"/>
</g>
<defs>
<clipPath id="clip0">
<rect width="41" height="41" fill="white"/>
</clipPath>
</defs>
</svg>
