<svg width="66" height="68" viewBox="0 0 66 68" fill="none" xmlns="http://www.w3.org/2000/svg">
<g clip-path="url(#clip0)">
<path d="M63.461 55.5695C63.461 60.1117 59.8902 63.7906 55.4817 63.7906H10.4031C5.99453 63.7906 2.42383 60.1117 2.42383 55.5695V9.11172C2.42383 4.56953 5.99453 0.890625 10.4031 0.890625H55.4817C59.8902 0.890625 63.461 4.56953 63.461 9.11172V55.5695Z" fill="#FFCC00" stroke="#3C424A" stroke-width="2" stroke-miterlimit="10"/>
<path d="M33.0121 18.5797C37.8977 18.5797 38.4777 18.593 40.4113 18.6859C42.1903 18.7656 43.1699 19.0711 43.8145 19.3367C44.6653 19.682 45.284 20.0938 45.9156 20.7445C46.5602 21.4086 46.9469 22.0328 47.2821 22.9094C47.527 23.5734 47.8363 24.5695 47.9137 26.4156C48.0039 28.4078 48.0168 29.0055 48.0168 34.0391C48.0168 39.0727 48.0039 39.6703 47.9137 41.6625C47.8363 43.4953 47.5399 44.5047 47.2821 45.1688C46.9469 46.0453 46.5473 46.6828 45.9156 47.3336C45.2711 47.9977 44.6653 48.3961 43.8145 48.7414C43.1699 48.9938 42.2031 49.3125 40.4113 49.3922C38.4777 49.4852 37.8977 49.4984 33.0121 49.4984C28.1266 49.4984 27.5465 49.4852 25.6129 49.3922C23.834 49.3125 22.8543 49.007 22.2098 48.7414C21.359 48.3961 20.7402 47.9844 20.1086 47.3336C19.4641 46.6695 19.0773 46.0453 18.7422 45.1688C18.4973 44.5047 18.1879 43.5086 18.1105 41.6625C18.0203 39.6703 18.0074 39.0727 18.0074 34.0391C18.0074 29.0055 18.0203 28.4078 18.1105 26.4156C18.1879 24.5828 18.4844 23.5734 18.7422 22.9094C19.0773 22.0328 19.477 21.3953 20.1086 20.7445C20.7531 20.0805 21.359 19.682 22.2098 19.3367C22.8543 19.0844 23.8211 18.7656 25.6129 18.6859C27.5465 18.593 28.1266 18.5797 33.0121 18.5797ZM33.0121 15.1797C28.0363 15.1797 27.4176 15.2062 25.4582 15.2992C23.5117 15.3922 22.184 15.7109 21.0109 16.1758C19.8121 16.6539 18.7809 17.3047 17.7625 18.3539C16.7441 19.4031 16.1125 20.4523 15.6484 21.7008C15.1973 22.8961 14.8879 24.2773 14.7977 26.2828C14.7074 28.3016 14.6816 28.9391 14.6816 34.0656C14.6816 39.1922 14.7074 39.8297 14.7977 41.8484C14.8879 43.8539 15.1973 45.2219 15.6484 46.4305C16.1125 47.6656 16.7441 48.7281 17.7625 49.7774C18.7809 50.8266 19.7992 51.4774 21.0109 51.9555C22.1711 52.4203 23.5117 52.7391 25.4582 52.832C27.4176 52.925 28.0363 52.9516 33.0121 52.9516C37.9879 52.9516 38.6067 52.925 40.566 52.832C42.5125 52.7391 43.8403 52.4203 45.0133 51.9555C46.2121 51.4774 47.2434 50.8266 48.2617 49.7774C49.2801 48.7281 49.9117 47.6789 50.3758 46.4305C50.827 45.2352 51.1363 43.8539 51.2266 41.8484C51.3168 39.8297 51.3426 39.1922 51.3426 34.0656C51.3426 28.9391 51.3168 28.3016 51.2266 26.2828C51.1363 24.2773 50.827 22.9094 50.3758 21.7008C49.9117 20.4656 49.2801 19.4031 48.2617 18.3539C47.2434 17.3047 46.225 16.6539 45.0133 16.1758C43.8531 15.7109 42.5125 15.3922 40.566 15.2992C38.6067 15.2062 37.9879 15.1797 33.0121 15.1797Z" fill="#3C424A"/>
<path d="M33.0125 24.3574C27.8176 24.3574 23.6152 28.7004 23.6152 34.0394C23.6152 39.3785 27.8305 43.7215 33.0125 43.7215C38.1945 43.7215 42.4098 39.3785 42.4098 34.0394C42.4098 28.7004 38.2074 24.3574 33.0125 24.3574ZM33.0125 40.3348C29.6352 40.3348 26.9152 37.5191 26.9152 34.0527C26.9152 30.5863 29.648 27.7574 33.0125 27.7574C36.377 27.7574 39.1098 30.573 39.1098 34.0394C39.1098 37.5059 36.3898 40.3348 33.0125 40.3348Z" fill="#3C424A"/>
<path d="M42.7969 26.2305C44.0071 26.2305 44.9883 25.2196 44.9883 23.9727C44.9883 22.7257 44.0071 21.7148 42.7969 21.7148C41.5866 21.7148 40.6055 22.7257 40.6055 23.9727C40.6055 25.2196 41.5866 26.2305 42.7969 26.2305Z" fill="#3C424A"/>
</g>
<defs>
<clipPath id="clip0">
<rect width="66" height="68" fill="white"/>
</clipPath>
</defs>
</svg>
