<svg width="41" height="41" viewBox="0 0 41 41" fill="none" xmlns="http://www.w3.org/2000/svg">
<g clip-path="url(#clip0)">
<path d="M39.4228 33.5053C39.4228 36.244 37.2047 38.4621 34.466 38.4621H6.46269C3.72402 38.4621 1.50586 36.244 1.50586 33.5053V5.49395C1.50586 2.75527 3.72402 0.537109 6.46269 0.537109H34.466C37.2047 0.537109 39.4228 2.75527 39.4228 5.49395V33.5053Z" fill="#309195" stroke="#FBFAFA" stroke-width="2" stroke-miterlimit="10"/>
<path d="M20.0002 19C23.314 19 26 16.3137 26 13C26 9.68636 23.314 7 20.0002 7C16.686 7 14 9.68636 14 13C14 16.3136 16.686 19 20.0002 19ZM20.0002 10.0483C21.6302 10.0483 22.9521 11.3696 22.9521 13C22.9521 14.6304 21.6302 15.9517 20.0002 15.9517C18.3698 15.9517 17.0479 14.6304 17.0479 13C17.0479 11.3696 18.3698 10.0483 20.0002 10.0483Z" fill="white"/>
<path d="M24.3126 19.5384C22.6577 20.893 20.0003 20.893 20.0003 20.893C20.0003 20.893 17.3423 20.893 15.6876 19.5384C14.4634 18.5366 13.5423 19.1136 13.2098 19.8081C12.6301 21.0177 13.285 21.6026 14.7635 22.5882C16.0264 23.4304 17.7613 23.7451 18.8816 23.8626L17.9461 24.8341C16.6287 26.2021 15.3572 27.5231 14.4751 28.4396C13.9476 28.9872 13.9476 29.8762 14.4751 30.4238L14.6343 30.589C15.162 31.137 16.0171 31.137 16.5444 30.589L20.0159 26.9836C21.3333 28.352 22.6047 29.6727 23.4868 30.589C24.0144 31.137 24.8695 31.137 25.3973 30.589L25.5564 30.4238C26.0836 29.8753 26.0836 28.9872 25.5564 28.4396L22.0847 24.8336L21.1466 23.8592C22.268 23.7395 23.9845 23.4234 25.2365 22.5881C26.7148 21.6025 27.37 21.0176 26.7901 19.808C26.4578 19.1137 25.5362 18.5366 24.3126 19.5384Z" fill="white"/>
</g>
<defs>
<clipPath id="clip0">
<rect width="41" height="41" fill="white"/>
</clipPath>
</defs>
</svg>
