<svg width="44" height="34" viewBox="0 0 44 34" fill="none" xmlns="http://www.w3.org/2000/svg">
<path fill-rule="evenodd" clip-rule="evenodd" d="M14.8777 18.9205C13.6115 17.7996 12.0288 16.9989 10.2878 16.9989C8.38849 16.9989 6.80576 17.7996 5.69784 18.9205C4.7482 19.7211 4.27338 20.842 3.95683 22.123C3.79856 22.6034 3.79856 23.0838 3.79856 23.5642C3.79856 25.4857 4.43165 27.087 5.69784 28.2079C6.80576 29.4889 8.38849 30.2895 10.2878 30.2895C12.0288 30.2895 13.6115 29.4889 14.8777 28.2079C15.9856 27.087 16.777 25.4857 16.777 23.5642C16.777 21.8028 15.9856 20.2015 14.8777 18.9205ZM38.3022 18.9205C37.1942 17.7996 35.4532 16.9989 33.7122 16.9989C31.9712 16.9989 30.2302 17.7996 29.1223 18.9205C27.8561 20.2015 27.223 21.8028 27.223 23.5642C27.223 25.4857 27.8561 27.087 29.1223 28.2079C30.2302 29.4889 31.9712 30.2895 33.7122 30.2895C35.4532 30.2895 37.1942 29.4889 38.3022 28.2079C39.4101 27.087 40.2014 25.4857 40.2014 23.5642C40.2014 21.8028 39.4101 20.2015 38.3022 18.9205ZM10.2878 13.316C12.9784 13.316 15.5108 14.2768 17.4101 16.1983C20.4173 18.1198 23.5827 18.1198 26.5899 16.0382C28.4892 14.2768 31.0216 13.316 33.7122 13.316C36.0863 13.316 38.3022 14.1166 40.0432 15.5578V5.46973C40.0432 5.14948 39.8849 4.6691 39.5683 4.34884L39.4101 4.18871C39.2518 4.02858 38.9353 3.86846 38.777 3.86846H33.0791C31.9712 3.86846 31.1799 2.90769 31.1799 1.94692C31.1799 0.826029 31.9712 0.0253906 33.0791 0.0253906H38.777C40.0432 0.0253906 41.1511 0.665902 42.1007 1.62667C42.259 1.62667 42.259 1.7868 42.259 1.7868C43.2086 2.74756 43.8417 4.18871 43.8417 5.46973V21.6426C43.8417 21.8028 43.8417 21.8028 43.8417 21.8028C43.8417 22.4433 44 23.0838 44 23.5642C44 26.4465 42.7338 29.0085 40.9928 30.93C39.0935 32.8516 36.5612 33.9725 33.7122 33.9725C30.8633 33.9725 28.3309 32.8516 26.4317 30.93C24.6906 29.1686 23.5827 26.9269 23.4245 24.2047C23.4245 24.0446 23.4245 23.8844 23.4245 23.5642V23.404C23.1079 21.8028 20.7338 21.6426 20.5755 23.8844C20.4173 26.6066 19.3094 29.1686 17.5683 30.93C15.6691 32.8516 13.1367 33.9725 10.2878 33.9725C7.43885 33.9725 4.90648 32.8516 3.00719 30.93C1.10791 29.0085 0 26.4465 0 23.5642C0 22.9237 0 22.123 0.158273 21.4825V5.46973C0.158273 4.18871 0.791367 2.74756 1.74101 1.7868L1.89928 1.62667C2.84892 0.665902 4.11511 0.0253906 5.3813 0.0253906H10.9209C12.0288 0.0253906 12.8201 0.826029 12.8201 1.94692C12.8201 2.90769 12.0288 3.86846 10.9209 3.86846H5.3813C5.06475 3.86846 4.90648 4.02858 4.58993 4.18871V4.34884C4.11511 4.6691 3.95683 5.14948 3.95683 5.46973V15.3977C5.69784 14.1166 7.91367 13.316 10.2878 13.316Z" fill="#309195"/>
</svg>
