<svg width="41" height="41" viewBox="0 0 41 41" fill="none" xmlns="http://www.w3.org/2000/svg">
<g clip-path="url(#clip0)">
<path d="M39.4229 33.5053C39.4229 36.244 37.2047 38.4621 34.466 38.4621H6.4627C3.72402 38.4621 1.50586 36.244 1.50586 33.5053V5.49395C1.50586 2.75527 3.72402 0.537109 6.4627 0.537109H34.466C37.2047 0.537109 39.4229 2.75527 39.4229 5.49395V33.5053Z" fill="#309195" stroke="#FBFAFA" stroke-width="2" stroke-miterlimit="10"/>
<path d="M18 20C18.4295 20.5741 18.9774 21.0491 19.6066 21.3929C20.2357 21.7367 20.9315 21.9411 21.6467 21.9923C22.3618 22.0435 23.0796 21.9403 23.7513 21.6897C24.4231 21.4392 25.0331 21.047 25.54 20.54L28.54 17.54C29.4508 16.597 29.9548 15.3339 29.9434 14.023C29.932 12.712 29.4061 11.4579 28.4791 10.5309C27.5521 9.60383 26.298 9.07799 24.987 9.0666C23.676 9.0552 22.413 9.55918 21.47 10.47L19.75 12.18" stroke="#FBFAFA" stroke-width="2" stroke-miterlimit="10" stroke-linecap="round"/>
<path d="M22.0002 17.9992C21.5707 17.4251 21.0228 16.9501 20.3936 16.6063C19.7645 16.2626 19.0687 16.0581 18.3535 16.0069C17.6384 15.9557 16.9206 16.0589 16.2489 16.3095C15.5771 16.5601 14.9671 16.9522 14.4602 17.4592L11.4602 20.4592C10.5494 21.4023 10.0454 22.6653 10.0568 23.9763C10.0682 25.2872 10.5941 26.5413 11.5211 27.4683C12.4481 28.3954 13.7022 28.9212 15.0132 28.9326C16.3242 28.944 17.5872 28.44 18.5302 27.5292L20.2402 25.8192" stroke="#FBFAFA" stroke-width="2" stroke-miterlimit="10" stroke-linecap="round"/>
</g>
<defs>
<clipPath id="clip0">
<rect width="41" height="41" fill="white"/>
</clipPath>
</defs>
</svg>
