<svg width="67" height="68" viewBox="0 0 67 68" fill="none" xmlns="http://www.w3.org/2000/svg">
<g clip-path="url(#clip0)">
<path d="M64.4228 55.5695C64.4228 60.1117 60.798 63.7906 56.3227 63.7906H10.5611C6.08574 63.7906 2.46094 60.1117 2.46094 55.5695V9.11172C2.46094 4.56953 6.08574 0.890625 10.5611 0.890625H56.3227C60.798 0.890625 64.4228 4.56953 64.4228 9.11172V55.5695Z" fill="#FFCC00" stroke="#3C424A" stroke-width="2" stroke-miterlimit="10"/>
<path d="M33.1471 32.2063C32.0086 32.9766 30.8832 33.7469 29.7447 34.504C28.5932 35.2743 27.3893 35.9782 26.2246 36.7219C24.9684 37.5055 23.6205 37.7844 22.1941 37.5587C19.3414 37.1204 16.6588 36.1243 14.0809 34.8227C13.8191 34.6899 13.5705 34.504 13.3742 34.2782C13.0602 33.9063 13.0602 33.5743 13.3742 33.2024C13.6229 32.8969 13.9631 32.711 14.2902 32.5251C15.8082 31.6751 17.3785 30.918 18.9488 30.1876C20.2051 29.5899 21.4744 29.0454 22.7438 28.4743C23.8561 27.9829 24.9684 27.4782 26.0807 27.0001C27.8604 26.2298 29.64 25.4727 31.4328 24.7157C35.7119 22.8962 40.0172 21.1298 44.3356 19.3766C45.9582 18.7258 47.5809 18.0883 49.2166 17.4508C49.9494 17.1719 50.7084 16.9993 51.4805 16.9594C52.1086 16.9329 52.7367 16.9727 53.234 17.4243C53.6397 17.7962 53.8229 18.261 53.7836 18.8321C53.7443 19.4032 53.7051 19.9743 53.6527 20.5321C53.5481 21.754 53.391 22.9758 53.2078 24.1977C52.8807 26.4555 52.5535 28.7133 52.2133 30.9844C52.0563 32.0469 51.8861 33.0962 51.716 34.1587C51.7029 34.2516 51.7029 34.3579 51.6898 34.4508C51.5066 35.5133 51.3365 36.5626 51.1533 37.6251C50.643 40.6532 50.1457 43.668 49.6354 46.6962C49.5307 47.3204 49.4391 47.9446 49.3082 48.5555C48.8633 50.8001 46.2461 51.836 44.3748 50.5344C41.1426 48.2899 37.8842 46.0719 34.6389 43.8407C33.6574 43.1633 32.7022 42.4462 31.7076 41.7954C30.8439 41.2243 30.6346 40.2149 30.8832 39.3782C31.158 38.4751 31.7076 37.7712 32.375 37.1469C33.6182 35.9782 34.8352 34.8094 36.0783 33.6274L36.1568 33.5876C38.5123 31.4094 40.8939 29.2712 43.0531 26.9071C43.2102 26.7344 43.3018 26.5485 43.3541 26.336C43.4064 26.1368 43.4981 25.911 43.3148 25.7383C43.1447 25.579 42.9223 25.6587 42.726 25.7251C42.2287 25.8844 41.7707 26.1633 41.3258 26.4423C39.5461 27.5844 37.858 28.8594 36.1307 30.0813C35.1361 30.7587 34.1416 31.4891 33.1471 32.2063Z" fill="#3C424A"/>
</g>
<defs>
<clipPath id="clip0">
<rect width="67" height="68" fill="white"/>
</clipPath>
</defs>
</svg>
