<svg width="41" height="41" viewBox="0 0 41 41" fill="none" xmlns="http://www.w3.org/2000/svg">
<g clip-path="url(#clip0)">
<path d="M39.4228 33.5053C39.4228 36.244 37.2047 38.4621 34.466 38.4621H6.46269C3.72402 38.4621 1.50586 36.244 1.50586 33.5053V5.49395C1.50586 2.75527 3.72402 0.537109 6.46269 0.537109H34.466C37.2047 0.537109 39.4228 2.75527 39.4228 5.49395V33.5053Z" fill="#309195" stroke="#FBFAFA" stroke-width="2" stroke-miterlimit="10"/>
<path d="M20.283 19.4194C19.5863 19.8839 18.8977 20.3483 18.201 20.8048C17.4963 21.2692 16.7596 21.6937 16.0469 22.1421C15.2781 22.6145 14.4533 22.7827 13.5805 22.6466C11.8348 22.3823 10.1932 21.7817 8.61563 20.997C8.45547 20.9169 8.30332 20.8048 8.1832 20.6687C7.99102 20.4444 7.99102 20.2442 8.1832 20.02C8.33535 19.8358 8.54355 19.7237 8.74375 19.6116C9.67266 19.0991 10.6336 18.6427 11.5945 18.2022C12.3633 17.8419 13.14 17.5136 13.9168 17.1692C14.5975 16.8729 15.2781 16.5687 15.9588 16.2804C17.0479 15.8159 18.1369 15.3595 19.234 14.903C21.8525 13.806 24.4871 12.7409 27.1297 11.6839C28.1227 11.2915 29.1156 10.9071 30.1166 10.5228C30.565 10.3546 31.0295 10.2505 31.502 10.2265C31.8863 10.2104 32.2707 10.2345 32.575 10.5067C32.8232 10.731 32.9354 11.0112 32.9113 11.3556C32.8873 11.6999 32.8633 12.0442 32.8313 12.3806C32.7672 13.1173 32.6711 13.854 32.559 14.5907C32.3588 15.952 32.1586 17.3134 31.9504 18.6827C31.8543 19.3233 31.7502 19.956 31.6461 20.5966C31.6381 20.6526 31.6381 20.7167 31.6301 20.7728C31.518 21.4134 31.4139 22.046 31.3018 22.6866C30.9895 24.5124 30.6852 26.3302 30.3729 28.156C30.3088 28.5323 30.2527 28.9087 30.1727 29.2771C29.9004 30.6304 28.2988 31.255 27.1537 30.4702C25.1758 29.1169 23.1818 27.7796 21.1959 26.4343C20.5953 26.0259 20.0107 25.5935 19.4022 25.2011C18.8736 24.8567 18.7455 24.2481 18.8977 23.7437C19.0658 23.1991 19.4022 22.7747 19.8105 22.3983C20.5713 21.6937 21.316 20.989 22.0768 20.2763L22.1248 20.2522C23.5662 18.939 25.0236 17.6497 26.3449 16.2243C26.441 16.1202 26.4971 16.0081 26.5291 15.88C26.5611 15.7599 26.6172 15.6237 26.5051 15.5196C26.401 15.4235 26.2648 15.4716 26.1447 15.5116C25.8404 15.6077 25.5602 15.7759 25.2879 15.944C24.1988 16.6327 23.1658 17.4015 22.1088 18.1382C21.5002 18.5466 20.8916 18.987 20.283 19.4194Z" fill="#FBFAFA"/>
</g>
<defs>
<clipPath id="clip0">
<rect width="41" height="41" fill="white"/>
</clipPath>
</defs>
</svg>
