<svg width="79" height="89" viewBox="0 0 79 89" fill="none" xmlns="http://www.w3.org/2000/svg">
<path fill-rule="evenodd" clip-rule="evenodd" d="M108.431 17.8222L108.424 17.8239L108.402 17.8291L108.365 17.8381L108.314 17.8512L108.249 17.8687L108.17 17.8909L108.077 17.918L107.969 17.9503L107.848 17.9881L107.714 18.0316L107.565 18.0812L107.404 18.137L107.229 18.1993L107.041 18.2684L106.841 18.3444L106.627 18.4277L106.402 18.5184L106.164 18.6167L105.915 18.723L105.654 18.8373L105.381 18.9598L105.097 19.0909L104.802 19.2305L104.497 19.379L104.181 19.5365L103.855 19.7031L103.519 19.879L103.174 20.0643L102.819 20.2592L102.455 20.4638L102.083 20.6782L101.702 20.9025L101.313 21.1368L100.917 21.3812L100.513 21.6358L100.102 21.9006L99.6846 22.1757L99.2605 22.4611L98.8303 22.757L98.3944 23.0632L97.953 23.3799L97.5066 23.7071L97.0555 24.0447L96.6 24.3927L96.1405 24.7511L95.6773 25.1199L95.2107 25.4991L94.7412 25.8886L94.2689 26.2883L93.7944 26.6981L93.318 27.1181L92.8399 27.548L92.3606 27.9878L91.8803 28.4374L91.3994 28.8967L90.9183 29.3655L90.4372 29.8437L89.9566 30.3311L89.4767 30.8277L88.9978 31.3331L88.5203 31.8473L88.0446 32.3701L87.5708 32.9012L87.0994 33.4405L86.6305 33.9878L86.1646 34.5427L85.7019 35.1052L85.2427 35.675L84.7873 36.2518L84.3359 36.8353L83.8888 37.4254L83.4463 38.0217L83.0087 38.624L82.5761 39.232L82.1488 39.8454L81.7272 40.464L81.3112 41.0873L80.9013 41.7152L80.4977 42.3472L80.1004 42.9832L79.7097 43.6227L79.3258 44.2655L78.9489 44.9111L78.5791 45.5594L78.2167 46.2099L77.8616 46.8623L77.5142 47.5162L77.1745 48.1713L76.8426 48.8273L76.5187 49.4838L76.2028 50.1404L75.8951 50.7967L75.5956 51.4525L75.3044 52.1074L75.0216 52.7609L74.7473 53.4128L74.4814 54.0626L74.224 54.71L73.9751 55.3547L73.7349 55.9962L73.5031 56.6342L73.2799 57.2684L73.0653 57.8984L72.8592 58.5237L72.6615 59.1441L72.4723 59.7593L72.2915 60.3688L72.119 60.9723L71.9548 61.5694L71.7987 62.1599L71.6508 62.7433L71.5108 63.3194L71.3786 63.8878L71.2543 64.4482L71.1375 65.0002L71.0283 65.5436L70.9264 66.078L70.8317 66.6031L70.7441 67.1186L70.6633 67.6243L70.5892 68.1198L70.5217 68.6049L70.4604 69.0793L70.4053 69.5427L70.3561 69.9949L70.3126 70.4355L70.2746 70.8645L70.2418 71.2815L70.2141 71.6862L70.1911 72.0786L70.1727 72.4583L70.1586 72.8252L70.1486 73.1791L70.1423 73.5197L70.1395 73.847L70.14 74.1608L70.1435 74.4608L70.1497 74.7469L70.1583 75.0191L70.169 75.2772L70.1816 75.521L70.1958 75.7505L70.2112 75.9656L70.2276 76.1661L70.2446 76.352L70.2621 76.5233L70.2796 76.6798L70.2969 76.8216L70.3137 76.9485L70.3297 77.0607L70.3445 77.1579L70.358 77.2404L70.3697 77.308L70.3794 77.3607L70.3867 77.3987L70.3914 77.4219L70.3932 77.4304L70.3919 77.4243L70.3869 77.4035L70.3783 77.3683L70.3655 77.3187L70.3483 77.2547L70.3266 77.1765L70.2999 77.0843L70.268 76.9781L70.2306 76.858L70.1875 76.7243L70.1385 76.5771L70.0832 76.4166L70.0214 76.2428L69.9529 76.0561L69.8774 75.8566L69.7947 75.6445L69.7046 75.42L69.6069 75.1833L69.5013 74.9347L69.3876 74.6744L69.2657 74.4027L69.1354 74.1197L68.9964 73.8257L68.8486 73.5211L68.6919 73.206L68.526 72.8808L68.3508 72.5457L68.1663 72.201L67.9721 71.8471L67.7683 71.4841L67.5547 71.1125L67.3312 70.7324L67.0977 70.3443L66.8541 69.9485L66.6004 69.5452L66.3364 69.1348L66.0621 68.7177L65.7775 68.2941L65.4824 67.8644L65.177 67.4289L64.8612 66.988L64.5348 66.542L64.1981 66.0912L63.8509 65.636L63.4933 65.1768L63.1253 64.7139L62.7469 64.2476L62.3583 63.7782L61.9594 63.3062L61.5504 62.8319L61.1312 62.3556L60.7021 61.8776L60.2631 61.3984L59.8142 60.9181L59.3557 60.4373L58.8877 59.9562L58.4102 59.4751L57.9235 58.9944L57.4277 58.5144L56.9229 58.0355L56.4094 57.5579L55.8873 57.082L55.3569 56.6081L54.8182 56.1364L54.2716 55.6674L53.7172 55.2012L53.1553 54.7382L52.5861 54.2787L52.0099 53.823L51.4269 53.3713L50.8373 52.9238L50.2415 52.481L49.6396 52.0429L49.0321 51.6099L48.4191 51.1823L47.801 50.7601L47.178 50.3437L46.5505 49.9334L45.9187 49.5292L45.2831 49.1314L44.6438 48.7402L44.0013 48.3557L43.3559 47.9783L42.7078 47.6079L42.0575 47.2449L41.4052 46.8892L40.7514 46.5412L40.0964 46.2008L39.4404 45.8683L38.784 45.5438L38.1274 45.2272L37.471 44.9189L36.8151 44.6187L36.1602 44.3269L35.5065 44.0434L34.8545 43.7684L34.2045 43.5018L33.5569 43.2438L32.912 42.9942L32.2702 42.7533L31.6319 42.5209L30.9974 42.297L30.3671 42.0817L29.7414 41.8749L29.1206 41.6766L28.505 41.4867L27.895 41.3052L27.2911 41.1321L26.6934 40.9672L26.1024 40.8105L25.5184 40.6619L24.9417 40.5212L24.3727 40.3885L23.8116 40.2635L23.2589 40.1462L22.7149 40.0363L22.1797 39.9339L21.6539 39.8386L21.1375 39.7504L20.6311 39.6691L20.1347 39.5945L19.6488 39.5264L19.1736 39.4647L18.7093 39.409L18.2562 39.3594L17.8146 39.3154L17.3847 39.277L16.9668 39.2438L16.561 39.2157L16.1677 39.1924L15.787 39.1736L15.419 39.1592L15.0641 39.1488L14.7224 39.1422L14.394 39.1392L14.0792 39.1395L13.7781 39.1427L13.4908 39.1487L13.2175 39.1571L12.9583 39.1677L12.7134 39.1801L12.4827 39.1942L12.2665 39.2095L12.0648 39.2258L11.8777 39.2428L11.7053 39.2603L11.5476 39.2778L11.4047 39.2952L11.2765 39.312L11.1632 39.328L11.0648 39.343L10.9811 39.3565L10.9124 39.3684L10.8584 39.3783L10.8193 39.3858L10.7949 39.3908L10.7852 39.3928L10.7902 39.3917L10.8098 39.3871L10.8439 39.3787L10.8924 39.3662L10.9552 39.3495L11.0322 39.3281L11.1234 39.3018L11.2285 39.2703L11.3474 39.2334L11.48 39.1908L11.6262 39.1422L11.7857 39.0874L11.9583 39.0261L12.144 38.9582L12.3425 38.8833L12.5537 38.8012L12.7772 38.7117L13.0129 38.6145L13.2605 38.5096L13.5199 38.3966L13.7908 38.2753L14.0729 38.1457L14.3659 38.0074L14.6697 37.8603L14.984 37.7043L15.3084 37.5391L15.6427 37.3647L15.9867 37.1809L16.3399 36.9875L16.7022 36.7845L17.0731 36.5717L17.4525 36.349L17.84 36.1163L18.2352 35.8735L18.6379 35.6205L19.0477 35.3574L19.4644 35.0839L19.8875 34.8001L20.3167 34.5059L20.7517 34.2013L21.1922 33.8863L21.6378 33.5608L22.0882 33.2249L22.5431 32.8785L23.002 32.5217L23.4646 32.1546L23.9307 31.777L24.3998 31.3892L24.8716 30.9912L25.3457 30.5829L25.8219 30.1646L26.2998 29.7362L26.7789 29.298L27.2591 28.8499L27.7399 28.3922L28.221 27.9249L28.7021 27.4482L29.1828 26.9622L29.6629 26.4671L30.1419 25.963L30.6196 25.4502L31.0957 24.9288L31.5698 24.399L32.0416 23.861L32.5109 23.315L32.9773 22.7612L33.4405 22.1999L33.9003 21.6313L34.3564 21.0556L34.8084 20.4731L35.2562 19.8841L35.6994 19.2887L36.1379 18.6874L36.5713 18.0803L36.9994 17.4677L37.422 16.85L37.8388 16.2274L38.2497 15.6002L38.6544 14.9688L39.0527 14.3334L39.4444 13.6944L39.8294 13.0522L40.2074 12.4069L40.5784 11.7591L40.942 11.1089L41.2982 10.4568L41.6469 9.80312L41.9878 9.14816L42.321 8.4923L42.6462 7.83589L42.9633 7.17928L43.2724 6.52284L43.5732 5.86693L43.8657 5.2119L44.1498 4.55813L44.4255 3.90598L44.6927 3.2558L44.9515 2.60797L45.2017 1.96286L45.4433 1.32081L45.6764 0.682208L45.901 0.0474027L46.117 -0.583238L46.3245 -1.20936L46.5234 -1.83059L46.714 -2.4466L46.8961 -3.05701L47.0699 -3.66148L47.2355 -4.25967L47.3928 -4.85123L47.5421 -5.43581L47.6834 -6.01308L47.8167 -6.58272L47.9423 -7.14439L48.0603 -7.69777L48.1707 -8.24254L48.2737 -8.77839L48.3696 -9.30501L48.4583 -9.8221L48.5402 -10.3294L48.6153 -10.8265L48.6839 -11.3133L48.7461 -11.7894L48.8022 -12.2546L48.8524 -12.7085L48.8968 -13.1511L48.9356 -13.5819L48.9692 -14.0008L48.9977 -14.4075L49.0214 -14.8018L49.0405 -15.1836L49.0553 -15.5526L49.066 -15.9085L49.0728 -16.2513L49.0761 -16.5807L49.0761 -16.8966L49.0731 -17.1988L49.0674 -17.4872L49.0591 -17.7616L49.0487 -18.022L49.0364 -18.2681L49.0225 -18.4999L49.0073 -18.7172L48.991 -18.9201L48.974 -19.1083L48.9566 -19.2819L48.9391 -19.4408L48.9217 -19.5849L48.9048 -19.7142L48.8887 -19.8287L48.8736 -19.9284L48.86 -20.0131L48.848 -20.0831L48.8379 -20.1382L48.8302 -20.1786L48.825 -20.2041L48.8227 -20.215L48.8236 -20.2111L48.8279 -20.1927L48.836 -20.1598L48.8481 -20.1124L48.8645 -20.0507L48.8855 -19.9748L48.9114 -19.8848L48.9425 -19.7808L48.979 -19.663L49.0211 -19.5315L49.0692 -19.3864L49.1235 -19.2279L49.1842 -19.0563L49.2517 -18.8716L49.326 -18.6741L49.4075 -18.464L49.4964 -18.2415L49.5929 -18.0068L49.6973 -17.76L49.8096 -17.5016L49.9302 -17.2316L50.0592 -16.9504L50.1968 -16.6582L50.3431 -16.3553L50.4985 -16.0418L50.6629 -15.7182L50.8365 -15.3847L51.0196 -15.0415L51.2122 -14.689L51.4145 -14.3274L51.6265 -13.9571L51.8484 -13.5784L52.0803 -13.1916L52.3223 -12.797L52.5744 -12.3948L52.8368 -11.9856L53.1094 -11.5695L53.3924 -11.1469L53.6858 -10.7181L53.9895 -10.2835L54.3037 -9.84345L54.6284 -9.39823L54.9635 -8.94821L55.309 -8.49372L55.665 -8.03512L56.0313 -7.57275L56.408 -7.10696L56.795 -6.63809L57.1923 -6.16649L57.5997 -5.6925L58.0172 -5.21648L58.4448 -4.73876L58.8823 -4.25968L59.3295 -3.77959L59.7865 -3.29883L60.253 -2.81773L60.729 -2.33663L61.2143 -1.85586L61.7086 -1.37574L62.212 -0.896613L62.7241 -0.418787L63.2448 0.0574206L63.774 0.531693L64.3113 1.00372L64.8567 1.47321L65.4099 1.93984L65.9706 2.40335L66.5386 2.86342L67.1137 3.31978L67.6957 3.77216L68.2843 4.22029L68.8791 4.66389L69.48 5.10273L70.0867 5.53653L70.6988 5.96507L71.3162 6.38811L71.9384 6.80542L72.5652 7.21678L73.1963 7.62197L73.8313 8.0208L74.47 8.41307L75.1121 8.79859L75.7571 9.17718L76.4047 9.54867L77.0547 9.9129L77.7067 10.2697L78.3603 10.619L79.0151 10.9606L79.6709 11.2943L80.3273 11.6202L80.9839 11.938L81.6404 12.2476L82.2964 12.5491L82.9515 12.8423L83.6054 13.1271L84.2576 13.4035L84.908 13.6714L85.556 13.9308L86.2014 14.1817L86.8437 14.424L87.4826 14.6578L88.1177 14.883L88.7487 15.0997L89.3752 15.3078L89.9968 15.5075L90.6132 15.6987L91.2241 15.8815L91.8291 16.056L92.4278 16.2222L93.0199 16.3802L93.605 16.5301L94.1829 16.672L94.7531 16.806L95.3154 16.9322L95.8695 17.0507L96.415 17.1618L96.9515 17.2654L97.4789 17.3618L97.9968 17.4511L98.5048 17.5335L99.0028 17.6092L99.4904 17.6783L99.9674 17.741L100.433 17.7976L100.888 17.8482L101.332 17.893L101.763 17.9323L102.183 17.9663L102.591 17.9952L102.986 18.0193L103.369 18.0388L103.739 18.0539L104.096 18.0649L104.44 18.072L104.77 18.0756L105.087 18.0759L105.391 18.0731L105.68 18.0675L105.956 18.0595L106.217 18.0492L106.464 18.037L106.697 18.0232L106.916 18.0081L107.12 17.9919L107.309 17.975L107.484 17.9576L107.644 17.9401L107.789 17.9227L107.92 17.9057L108.036 17.8895L108.136 17.8744L108.222 17.8606L108.294 17.8484L108.35 17.8383L108.391 17.8303L108.418 17.8249L108.43 17.8224L108.431 17.8222Z" fill="#FA5C45"/>
</svg>
