<svg width="41" height="41" viewBox="0 0 41 41" fill="none" xmlns="http://www.w3.org/2000/svg">
<g clip-path="url(#clip0)">
<path d="M39.4229 33.5053C39.4229 36.244 37.2047 38.4621 34.466 38.4621H6.4627C3.72402 38.4621 1.50586 36.244 1.50586 33.5053V5.49395C1.50586 2.75527 3.72402 0.537109 6.4627 0.537109H34.466C37.2047 0.537109 39.4229 2.75527 39.4229 5.49395V33.5053Z" fill="#309195" stroke="#FBFAFA" stroke-width="2" stroke-miterlimit="10"/>
<path d="M31.4468 14.3898C30.63 11.9074 28.6441 9.98555 26.1296 9.26484C22.4541 8.56016 18.6744 8.56016 14.9988 9.26484C12.4443 9.94551 10.3943 11.8514 9.55347 14.3578C8.8728 17.4488 8.8728 20.6439 9.55347 23.735C10.3382 26.1133 12.196 27.9871 14.5744 28.7879V31.2863C14.5744 31.8389 15.0228 32.2873 15.5833 32.2873C15.8556 32.2873 16.1199 32.1752 16.3041 31.983L18.8265 29.3725C19.371 29.3725 19.9156 29.3725 20.4681 29.3725C22.3339 29.3725 24.1998 29.1963 26.0335 28.844C28.548 28.1232 30.5339 26.2014 31.3507 23.719C32.0474 20.6439 32.0794 17.4648 31.4468 14.3898ZM29.4529 23.2465C28.8283 24.9602 27.4429 26.2895 25.7052 26.85C23.7593 27.2184 21.7814 27.3785 19.7955 27.3225C19.7634 27.3064 19.7234 27.3064 19.6914 27.3225L17.8335 29.3324L15.8716 31.3424C15.7755 31.4305 15.6314 31.4305 15.5353 31.3344C15.4953 31.2943 15.4712 31.2383 15.4712 31.1822V27.0662C15.4632 27.0022 15.4152 26.9461 15.3511 26.9301C13.6134 26.3775 12.2281 25.0402 11.6035 23.3266C10.9869 20.5318 10.9869 17.641 11.6035 14.8543C12.2281 13.1406 13.6134 11.8113 15.3511 11.2508C18.7624 10.5941 22.2699 10.5941 25.6892 11.2508C27.4269 11.8033 28.8123 13.1406 29.4369 14.8543C30.0535 17.641 30.0615 20.5398 29.4529 23.3266V23.2465Z" fill="#FBFAFA"/>
<path d="M25.5218 22.5981C25.2175 22.3418 24.8972 22.1016 24.5609 21.8774C24.2245 21.6371 23.8962 21.4049 23.5439 21.1807C23.2236 20.9404 22.7831 20.9404 22.4628 21.1807C22.1345 21.4449 21.9743 21.9654 21.5179 22.0215C21.2456 22.0295 20.9814 21.9654 20.7492 21.8293C19.3318 21.2047 18.2507 19.9875 17.7943 18.5061C17.6982 18.3219 17.6982 18.0977 17.7943 17.9135C17.8583 17.8174 17.9384 17.7293 18.0345 17.6652L18.3468 17.425C18.7712 17.1287 18.8833 16.5602 18.6111 16.1277C18.1866 15.407 17.6982 14.7344 17.1376 14.1178C16.9214 13.8295 16.529 13.7334 16.2087 13.8936C15.7683 14.1018 15.3759 14.3981 15.0556 14.7664C14.6392 15.1348 14.471 15.7033 14.6152 16.2398C14.8554 16.8164 15.0876 17.393 15.3519 17.9535C15.9124 19.1387 16.6331 20.2438 17.49 21.2287C19.0435 22.8943 20.9574 24.1756 23.0874 24.9764C23.2956 25.0645 23.5118 25.1125 23.7361 25.1846C23.9363 25.1365 24.1365 25.0725 24.3286 24.9924C24.9372 24.6641 25.4177 24.1436 25.698 23.519C25.8661 23.2147 25.7941 22.8303 25.5218 22.5981Z" fill="#FBFAFA"/>
<path d="M20.5318 13.2207H20.3717C20.1875 13.2207 20.0273 13.3729 20.0273 13.557C20.0273 13.573 20.0273 13.5891 20.0273 13.6051C20.0273 13.8533 20.3236 13.8533 20.5318 13.8854C20.74 13.9174 21.1645 13.8854 21.4607 13.9895C23.5348 14.3738 25.1363 16.0395 25.4486 18.1215C25.4486 18.5059 25.5207 18.9062 25.5527 19.3066C25.5848 19.707 25.6729 19.691 25.8891 19.691C26.0652 19.683 26.2094 19.5389 26.2014 19.3547C26.2014 19.3387 26.2014 19.3227 26.1934 19.3066C26.1934 18.8342 26.1934 18.3617 26.0492 17.8332C25.5607 15.1666 23.2385 13.2287 20.5318 13.2207Z" fill="#FBFAFA"/>
<path d="M24.0876 18.6258C24.0716 18.7139 24.0716 18.802 24.0876 18.8901C24.1437 19.0503 24.3118 19.1464 24.48 19.0903C24.5761 19.0583 24.6482 18.9862 24.6802 18.8901C24.6882 18.826 24.6882 18.762 24.6802 18.6979C24.6802 18.5057 24.6802 18.3616 24.6802 18.2255C24.6802 18.0893 24.6802 18.1053 24.6802 18.0493C24.5361 16.8241 23.7913 15.751 22.6862 15.1985C22.1257 14.9102 21.5011 14.7501 20.8685 14.726C20.7083 14.71 20.5642 14.8301 20.5482 14.9903C20.5482 14.9983 20.5482 15.0143 20.5482 15.0223C20.5241 15.1825 20.6363 15.3346 20.7964 15.3587C20.8044 15.3587 20.8204 15.3587 20.8284 15.3587L21.357 15.4467C21.7173 15.5028 22.0696 15.6149 22.406 15.7751C22.9505 16.0473 23.415 16.4717 23.7193 17.0003C23.9755 17.5048 24.1036 18.0653 24.0876 18.6258Z" fill="#FBFAFA"/>
<path d="M23.262 18.4092C23.278 18.3211 23.278 18.233 23.262 18.1449C23.27 17.0959 22.4212 16.2311 21.3722 16.2231C21.3642 16.2231 21.3642 16.2231 21.3562 16.2231C21.188 16.2151 21.0359 16.3272 21.0038 16.4873C20.9718 16.6555 21.0759 16.8156 21.2441 16.8557H21.2521C21.4122 16.8557 21.5884 16.8557 21.7726 16.9277C21.9087 16.9678 22.0288 17.0238 22.1409 17.1039C22.3732 17.2801 22.5333 17.5363 22.5974 17.8246C22.6054 17.9688 22.6054 18.1209 22.5974 18.2651C22.5974 18.4492 22.7495 18.6014 22.9337 18.6014C22.9417 18.6014 22.9417 18.6014 22.9497 18.6014C23.0939 18.6334 23.23 18.5453 23.262 18.4092Z" fill="#FBFAFA"/>
</g>
<defs>
<clipPath id="clip0">
<rect width="41" height="41" fill="white"/>
</clipPath>
</defs>
</svg>
