<svg width="41" height="41" viewBox="0 0 41 41" fill="none" xmlns="http://www.w3.org/2000/svg">
<g clip-path="url(#clip0)">
<path d="M39.4228 33.5053C39.4228 36.244 37.2047 38.4621 34.466 38.4621H6.46269C3.72402 38.4621 1.50586 36.244 1.50586 33.5053V5.49395C1.50586 2.75527 3.72402 0.537109 6.46269 0.537109H34.466C37.2047 0.537109 39.4228 2.75527 39.4228 5.49395V33.5053Z" fill="#6A7380" fill-opacity="0.27" stroke="#FBFAFA" stroke-width="2" stroke-miterlimit="10"/>
<path d="M31.8406 13.4265C32.0039 12.8748 31.8406 12.4688 31.055 12.4688H28.4556C27.7936 12.4688 27.489 12.8174 27.3258 13.2058C27.3258 13.2058 26.0019 16.4319 24.1306 18.5237C23.526 19.1283 23.248 19.3225 22.917 19.3225C22.7538 19.3225 22.5022 19.1283 22.5022 18.5766V13.4264C22.5022 12.7644 22.3168 12.4688 21.7696 12.4688H17.683C17.2681 12.4688 17.021 12.7777 17.021 13.0645C17.021 13.6911 17.9566 13.8368 18.0537 15.6021V19.4328C18.0537 20.2713 17.9036 20.4257 17.5727 20.4257C16.69 20.4257 14.5452 17.1865 13.2742 13.4793C13.0183 12.76 12.7667 12.4688 12.1003 12.4688H9.50088C8.75947 12.4688 8.60938 12.8174 8.60938 13.2058C8.60938 13.8942 9.49203 17.3145 12.7181 21.8336C14.8674 24.9184 17.8949 26.5912 20.6486 26.5912C22.3036 26.5912 22.5066 26.2205 22.5066 25.5806C22.5066 22.6325 22.3566 22.3544 23.1864 22.3544C23.5702 22.3544 24.2322 22.5485 25.777 24.0358C27.5421 25.8011 27.8334 26.5912 28.822 26.5912H31.4214C32.1628 26.5912 32.538 26.2205 32.3217 25.4878C31.8274 23.9476 28.4866 20.7789 28.3365 20.5671C27.9526 20.0727 28.0629 19.852 28.3365 19.4107C28.3409 19.4064 31.514 14.9402 31.8406 13.4265Z" fill="#FBFAFA"/>
<path d="M31.4207 27.1288H28.8214C27.8881 27.1288 27.4106 26.5978 26.6195 25.7181C26.3053 25.3686 25.9143 24.9339 25.4005 24.4199C24.3619 23.4204 23.596 22.8921 23.1857 22.8921C23.136 22.8921 23.0989 22.8934 23.0715 22.8951C23.0245 23.1256 23.0299 23.7293 23.036 24.4161C23.039 24.7528 23.0424 25.1344 23.0424 25.5818C23.0424 26.8658 22.0852 27.1289 20.648 27.1289C19.1725 27.1289 17.6291 26.6808 16.1845 25.8332C14.7077 24.9666 13.3573 23.6909 12.2791 22.1441C9.13157 17.7343 8.07227 14.1605 8.07227 13.207C8.07227 12.3978 8.59272 11.9336 9.50021 11.9336H12.0996C13.2004 11.9336 13.5436 12.6393 13.7789 13.3008C13.7796 13.3027 13.7802 13.3047 13.7809 13.3067C14.3421 14.9433 15.1079 16.5825 15.9374 17.9223C16.7219 19.1896 17.264 19.6956 17.4965 19.8439C17.5073 19.7594 17.5166 19.6297 17.5166 19.4341V15.6186C17.4638 14.71 17.1712 14.347 16.9129 14.0265C16.7118 13.777 16.4839 13.4943 16.4839 13.0658C16.4839 12.5213 16.9421 11.9336 17.6823 11.9336H21.7689C22.2166 11.9336 22.5545 12.085 22.7732 12.3837C23.0105 12.7077 23.038 13.1347 23.038 13.4277V18.5779C23.038 18.6493 23.0441 18.7053 23.0522 18.7476C23.1789 18.6816 23.3769 18.5188 23.74 18.1563C25.5241 16.1558 26.8161 13.0348 26.829 13.0034C27.1236 12.3021 27.6853 11.9336 28.455 11.9336H31.0544C31.5951 11.9336 31.9884 12.0933 32.2236 12.4081C32.3779 12.6149 32.5258 12.9819 32.36 13.5607C32.2012 14.2642 31.5661 15.4796 30.4192 17.2746C29.8629 18.1453 29.0585 19.3323 28.7908 19.694L28.7919 19.6946C28.7426 19.7741 28.6272 19.9603 28.6241 20.0132C28.6241 20.0132 28.6308 20.0735 28.7596 20.2393C28.7606 20.2406 28.7617 20.242 28.7627 20.2433C28.8023 20.2892 28.9617 20.4521 29.116 20.6098C30.7368 22.2665 32.4458 24.1222 32.8319 25.3251C32.8332 25.3291 32.8344 25.3331 32.8356 25.3372C33.0222 25.9692 32.8573 26.375 32.6861 26.604C32.507 26.8434 32.1422 27.1288 31.4207 27.1288ZM23.1857 21.8191C23.7101 21.8191 24.4722 22.0367 26.1484 23.6505C26.1509 23.6529 26.1533 23.6553 26.1557 23.6577C26.6913 24.1934 27.0939 24.641 27.4173 25.0007C28.1695 25.8372 28.3843 26.0559 28.8214 26.0559H31.4208C31.6861 26.0559 31.8023 25.9942 31.8267 25.9616C31.845 25.9371 31.8644 25.84 31.8084 25.6468C31.4414 24.5206 29.1146 22.1425 28.3491 21.3601C28.0528 21.0572 27.9604 20.962 27.9077 20.8916C27.333 20.1475 27.5551 19.6532 27.88 19.1292C27.8874 19.1173 27.8952 19.1057 27.9035 19.0944C28.4143 18.3867 31.0476 14.5565 31.3155 13.3145C31.3184 13.3013 31.3217 13.2883 31.3256 13.2753C31.3611 13.1554 31.3632 13.0826 31.3596 13.0517C31.3309 13.0378 31.2449 13.0065 31.0544 13.0065H28.455C28.069 13.0065 27.9258 13.1627 27.8198 13.4149C27.766 13.5459 26.4406 16.7466 24.5298 18.8826C24.5232 18.89 24.5164 18.8973 24.5094 18.9043C23.8484 19.5653 23.4615 19.8602 22.9164 19.8602C22.4437 19.8602 21.9652 19.4198 21.9652 18.5779V13.4277C21.9652 13.1412 21.9238 13.0455 21.9112 13.0231C21.8972 13.018 21.8563 13.0064 21.769 13.0064H17.6824C17.5699 13.0064 17.5568 13.0681 17.5567 13.0688C17.5569 13.1157 17.6499 13.2311 17.7483 13.3532C18.0553 13.7342 18.5193 14.3097 18.5888 15.5739C18.5893 15.5837 18.5896 15.5935 18.5896 15.6033V19.434C18.5896 19.9304 18.5896 20.9634 17.5721 20.9634C17.3294 20.9634 16.5908 20.9634 15.1151 18.6307C14.2236 17.2214 13.3678 15.4087 12.7671 13.6573C12.5351 13.0065 12.4074 13.0065 12.0996 13.0065H9.50027C9.2755 13.0065 9.17948 13.0493 9.16344 13.0644C9.16381 13.0644 9.1452 13.0972 9.1452 13.2071C9.1452 13.6268 9.88446 16.9432 13.1541 21.5232C13.1552 21.5249 13.1564 21.5266 13.1576 21.5283C15.1329 24.3634 17.933 26.056 20.648 26.056C21.5098 26.056 21.8017 25.9467 21.8989 25.8815C21.932 25.8593 21.9695 25.8342 21.9695 25.5818C21.9695 25.1391 21.9661 24.7601 21.9631 24.4256C21.9501 22.9601 21.9457 22.4664 22.3033 22.1056C22.5528 21.8539 22.8748 21.8191 23.1857 21.8191Z" fill="#FBFAFA"/>
</g>
<defs>
<clipPath id="clip0">
<rect width="41" height="41" fill="white"/>
</clipPath>
</defs>
</svg>
