<svg width="68" height="68" viewBox="0 0 68 68" fill="none" xmlns="http://www.w3.org/2000/svg">
<g clip-path="url(#clip0)">
<path d="M65.3828 55.5696C65.3828 60.1117 61.7039 63.7906 57.1617 63.7906H10.7172C6.175 63.7906 2.49609 60.1117 2.49609 55.5696V9.11172C2.49609 4.56953 6.175 0.890625 10.7172 0.890625H57.1617C61.7039 0.890625 65.3828 4.56953 65.3828 9.11172V55.5696Z" fill="#FFCC00" stroke="#3C424A" stroke-width="2" stroke-miterlimit="10"/>
<path d="M52.8071 22.27C53.078 21.3551 52.8071 20.6817 51.5042 20.6817H47.193C46.0951 20.6817 45.5899 21.2599 45.3192 21.9041C45.3192 21.9041 43.1234 27.2546 40.0199 30.724C39.0172 31.7268 38.556 32.0489 38.0071 32.0489C37.7364 32.0489 37.3191 31.7267 37.3191 30.8118V22.2699C37.3191 21.172 37.0116 20.6816 36.104 20.6816H29.3262C28.6382 20.6816 28.2283 21.194 28.2283 21.6697C28.2283 22.709 29.7801 22.9506 29.9411 25.8784V32.2318C29.9411 33.6225 29.6922 33.8785 29.1433 33.8785C27.6794 33.8785 24.1221 28.5061 22.0141 22.3578C21.5896 21.1648 21.1724 20.6816 20.0671 20.6816H15.7559C14.5263 20.6816 14.2773 21.2599 14.2773 21.904C14.2773 23.0458 15.7413 28.7185 21.0919 36.2137C24.6564 41.3299 29.6777 44.1042 34.2449 44.1042C36.9897 44.1042 37.3265 43.4894 37.3265 42.4281C37.3265 37.5385 37.0776 37.0773 38.4538 37.0773C39.0905 37.0773 40.1885 37.3993 42.7504 39.866C45.678 42.7938 46.1611 44.1042 47.8008 44.1042H52.1119C53.3416 44.1042 53.9638 43.4894 53.6051 42.2741C52.7853 39.7198 47.2444 34.4643 46.9956 34.113C46.3588 33.2931 46.5416 32.9271 46.9956 32.195C47.0029 32.188 52.2656 24.7806 52.8071 22.27Z" fill="#3C424A"/>
<path d="M52.1129 44.9948H47.8018C46.254 44.9948 45.462 44.1142 44.1499 42.6551C43.6288 42.0754 42.9803 41.3544 42.1282 40.5019C40.4056 38.8442 39.1354 37.968 38.4548 37.968C38.3724 37.968 38.311 37.9701 38.2655 37.9731C38.1876 38.3553 38.1965 39.3566 38.2066 40.4957C38.2116 41.054 38.2172 41.687 38.2172 42.4291C38.2172 44.5586 36.6296 44.9949 34.2459 44.9949C31.7989 44.9949 29.239 44.2517 26.8431 42.8459C24.3938 41.4087 22.154 39.293 20.3658 36.7275C15.1456 29.4137 13.3887 23.4864 13.3887 21.905C13.3887 20.5628 14.2519 19.793 15.757 19.793H20.0681C21.8938 19.793 22.463 20.9635 22.8533 22.0606C22.8545 22.0638 22.8556 22.0671 22.8567 22.0703C23.7874 24.7847 25.0575 27.5033 26.4332 29.7255C27.7344 31.8274 28.6336 32.6665 29.0192 32.9124C29.037 32.7724 29.0524 32.5573 29.0524 32.2328V25.9046C28.9649 24.3978 28.4796 23.7957 28.0512 23.2641C27.7176 22.8503 27.3397 22.3814 27.3397 21.6708C27.3397 20.7677 28.0997 19.793 29.3273 19.793H36.105C36.8475 19.793 37.4079 20.0441 37.7707 20.5394C38.1643 21.0768 38.2099 21.785 38.2099 22.271V30.8128C38.2099 30.9312 38.22 31.0241 38.2335 31.0943C38.4435 30.9848 38.7719 30.7148 39.3743 30.1135C42.3332 26.7956 44.476 21.6194 44.4974 21.5673C44.9861 20.4041 45.9177 19.793 47.1942 19.793H51.5055C52.4021 19.793 53.0544 20.0578 53.4445 20.58C53.7005 20.9229 53.9457 21.5316 53.6707 22.4915C53.4075 23.6584 52.3541 25.6742 50.4519 28.6513C49.5292 30.0954 48.1951 32.064 47.7512 32.6639L47.7529 32.6649C47.6711 32.7967 47.4797 33.1055 47.4746 33.1932C47.4746 33.1932 47.4858 33.2933 47.6993 33.5683L47.7045 33.5749C47.7702 33.6511 48.0345 33.9213 48.2904 34.1828C50.9787 36.9304 53.8131 40.0083 54.4534 42.0033C54.4555 42.0098 54.4576 42.0165 54.4595 42.0233C54.7691 43.0716 54.4955 43.7445 54.2116 44.1244C53.9146 44.5215 53.3096 44.9948 52.1129 44.9948ZM38.4548 36.1885C39.3246 36.1885 40.5885 36.5494 43.3686 39.226C43.3727 39.2299 43.3767 39.2339 43.3807 39.2379C44.2691 40.1263 44.9367 40.8687 45.4732 41.4653C46.7206 42.8526 47.0769 43.2154 47.8019 43.2154H52.113C52.5531 43.2154 52.7458 43.1131 52.7863 43.059C52.8166 43.0183 52.8487 42.8572 52.7558 42.5369C52.1472 40.6691 48.2881 36.7247 47.0185 35.4271C46.5271 34.9248 46.3738 34.7669 46.2865 34.6501C45.3332 33.4161 45.7017 32.5962 46.2405 31.7272C46.2527 31.7073 46.2657 31.6881 46.2795 31.6694C47.1266 30.4957 51.4941 24.1431 51.9385 22.0832C51.9433 22.0614 51.9487 22.0397 51.9551 22.0183C52.014 21.8194 52.0176 21.6987 52.0116 21.6474C51.964 21.6243 51.8214 21.5724 51.5055 21.5724H47.1942C46.554 21.5724 46.3164 21.8315 46.1406 22.2498C46.0515 22.4671 43.8533 27.7755 40.6842 31.3182C40.6731 31.3305 40.6618 31.3425 40.6502 31.3541C39.554 32.4505 38.9123 32.9396 38.0083 32.9396C37.2242 32.9396 36.4306 32.209 36.4306 30.8128V22.271C36.4306 21.7959 36.3619 21.6371 36.3411 21.6C36.3179 21.5914 36.25 21.5723 36.1052 21.5723H29.3275C29.1408 21.5723 29.119 21.6757 29.119 21.6757C29.1193 21.7535 29.2735 21.9449 29.4368 22.1475C29.946 22.7793 30.7154 23.7339 30.8307 25.8305C30.8316 25.8468 30.832 25.8631 30.832 25.8793V32.2327C30.832 33.056 30.832 34.7692 29.1445 34.7692C28.742 34.7692 27.517 34.7692 25.0695 30.9004C23.5909 28.563 22.1716 25.5566 21.1752 22.6519C20.7905 21.5724 20.5786 21.5724 20.0682 21.5724H15.7571C15.3843 21.5724 15.225 21.6435 15.1984 21.6685C15.1984 21.6685 15.1682 21.7228 15.1682 21.9051C15.1682 22.6011 16.3943 28.1016 21.817 35.6978C21.819 35.7005 21.8209 35.7034 21.8229 35.7061C25.099 40.4083 29.7431 43.2155 34.2459 43.2155C35.6753 43.2155 36.1594 43.0342 36.3206 42.9261C36.3755 42.8892 36.4377 42.8476 36.4377 42.4291C36.4377 41.6948 36.4321 41.0661 36.4272 40.5114C36.4056 38.0808 36.3983 37.262 36.9914 36.6636C37.4052 36.2461 37.9393 36.1885 38.4548 36.1885Z" fill="#3C424A"/>
</g>
<defs>
<clipPath id="clip0">
<rect width="68" height="68" fill="white"/>
</clipPath>
</defs>
</svg>
