<svg width="41" height="41" viewBox="0 0 41 41" fill="none" xmlns="http://www.w3.org/2000/svg">
<g clip-path="url(#clip0)">
<path d="M39.4229 33.5053C39.4229 36.244 37.2047 38.4621 34.466 38.4621H6.4627C3.72402 38.4621 1.50586 36.244 1.50586 33.5053V5.49395C1.50586 2.75527 3.72402 0.537109 6.4627 0.537109H34.466C37.2047 0.537109 39.4229 2.75527 39.4229 5.49395V33.5053Z" fill="#309195" stroke="#FBFAFA" stroke-width="2" stroke-miterlimit="10"/>
<path d="M28.4191 11.0508C26.3051 8.93672 23.4943 7.76758 20.5074 7.76758C14.3414 7.76758 9.32051 12.7885 9.32051 18.9545C9.32051 20.9244 9.83301 22.8543 10.818 24.5439L9.23242 30.3416L15.1662 28.7881C16.7998 29.677 18.6416 30.1494 20.5154 30.1494H20.5234C26.6895 30.1494 31.7104 25.1285 31.7104 18.9625C31.6943 15.9756 30.5252 13.1648 28.4191 11.0508ZM20.4994 28.2596C18.8258 28.2596 17.1922 27.8111 15.7588 26.9623L15.4225 26.7621L11.899 27.683L12.8359 24.2557L12.6117 23.9033C11.6828 22.4219 11.1863 20.7082 11.1863 18.9545C11.1863 13.8295 15.3584 9.65742 20.4914 9.65742C22.9738 9.65742 25.3121 10.6264 27.0658 12.3881C28.8195 14.1418 29.7885 16.4801 29.7885 18.9625C29.7965 24.0875 25.6244 28.2596 20.4994 28.2596Z" fill="#FBFAFA"/>
<path d="M17.7053 14.2775C17.4971 13.8131 17.2729 13.8051 17.0727 13.7971C16.9125 13.7891 16.7203 13.7891 16.5361 13.7891C16.352 13.7891 16.0477 13.8611 15.7914 14.1414C15.5352 14.4137 14.8145 15.0943 14.8145 16.4717C14.8145 17.849 15.8154 19.1783 15.9596 19.3625C16.0957 19.5467 17.8975 22.4615 20.7322 23.5826C23.0945 24.5115 23.575 24.3273 24.0875 24.2793C24.6 24.2312 25.7451 23.6066 25.9773 22.95C26.2096 22.2934 26.2096 21.7408 26.1375 21.6207C26.0654 21.5006 25.8812 21.4365 25.601 21.2924C25.3207 21.1562 23.9434 20.4756 23.6871 20.3795C23.4309 20.2834 23.2467 20.2434 23.0545 20.5156C22.8703 20.7959 22.3338 21.4285 22.1656 21.6127C22.0055 21.7969 21.8373 21.8209 21.557 21.6848C21.2768 21.5406 20.3799 21.2523 19.3068 20.2994C18.474 19.5547 17.9135 18.6418 17.7533 18.3615C17.5932 18.0812 17.7373 17.9291 17.8734 17.793C18.0016 17.6648 18.1537 17.4646 18.2898 17.3045C18.426 17.1443 18.474 17.0242 18.5701 16.84C18.6662 16.6559 18.6182 16.4877 18.5461 16.3516C18.498 16.2154 17.9535 14.8301 17.7053 14.2775Z" fill="#FBFAFA"/>
</g>
<defs>
<clipPath id="clip0">
<rect width="41" height="41" fill="white"/>
</clipPath>
</defs>
</svg>
