<svg width="66" height="66" viewBox="0 0 66 66" fill="none" xmlns="http://www.w3.org/2000/svg">
<path d="M4.74444e-06 33C3.15113e-06 14.7746 14.7746 1.21077e-05 33 1.05143e-05C51.2254 8.92103e-06 66 14.7746 66 33C66 51.2254 51.2254 66 33 66C14.7746 66 6.33776e-06 51.2254 4.74444e-06 33ZM55.7862 33C55.7862 20.4155 45.5845 10.2138 33 10.2138C20.4155 10.2138 10.2138 20.4155 10.2138 33C10.2138 45.5845 20.4155 55.7863 33 55.7863C45.5845 55.7862 55.7862 45.5845 55.7862 33Z" fill="#FA5C45"/>
<circle cx="33.375" cy="33.375" r="9.375" fill="#FA5C45"/>
</svg>
