<svg width="131" height="131" viewBox="0 0 131 131" fill="none" xmlns="http://www.w3.org/2000/svg">
<mask id="path-1-inside-1" fill="white">
<path fill-rule="evenodd" clip-rule="evenodd" d="M46.0624 111.215L65.4101 130.562L84.7577 111.215H110.7V85.2721L130.691 65.2812L110.7 45.2903V18.8932L84.3033 18.8932L65.4101 0L46.5169 18.8932L18.3788 18.8932L18.3788 47.0312L0.128906 65.2812L18.3788 83.5311L18.3788 111.215H46.0624Z"/>
</mask>
<path d="M65.4101 130.562L63.9959 131.977L65.4101 133.391L66.8243 131.977L65.4101 130.562ZM46.0624 111.215L47.4766 109.8L46.8909 109.215H46.0624V111.215ZM84.7577 111.215V109.215H83.9293L83.3435 109.8L84.7577 111.215ZM110.7 111.215V113.215H112.7V111.215H110.7ZM110.7 85.2721L109.286 83.8579L108.7 84.4436V85.2721H110.7ZM130.691 65.2812L132.105 66.6954L133.52 65.2812L132.105 63.867L130.691 65.2812ZM110.7 45.2903H108.7V46.1187L109.286 46.7045L110.7 45.2903ZM110.7 18.8932H112.7V16.8932H110.7V18.8932ZM84.3033 18.8932L82.889 20.3074L83.4748 20.8932H84.3033V18.8932ZM65.4101 0L66.8243 -1.41421L65.4101 -2.82843L63.9959 -1.41421L65.4101 0ZM46.5169 18.8932V20.8932H47.3453L47.9311 20.3074L46.5169 18.8932ZM18.3788 18.8932V16.8932H16.3788V18.8932H18.3788ZM18.3788 47.0312L19.793 48.4455L20.3788 47.8597V47.0312H18.3788ZM0.128906 65.2812L-1.28531 63.867L-2.69952 65.2812L-1.28531 66.6954L0.128906 65.2812ZM18.3788 83.5311H20.3788V82.7027L19.7931 82.1169L18.3788 83.5311ZM18.3788 111.215H16.3788V113.215H18.3788V111.215ZM66.8243 129.148L47.4766 109.8L44.6482 112.629L63.9959 131.977L66.8243 129.148ZM83.3435 109.8L63.9959 129.148L66.8243 131.977L86.172 112.629L83.3435 109.8ZM110.7 109.215H84.7577V113.215H110.7V109.215ZM108.7 85.2721V111.215H112.7V85.2721H108.7ZM129.277 63.867L109.286 83.8579L112.115 86.6863L132.105 66.6954L129.277 63.867ZM109.286 46.7045L129.277 66.6954L132.105 63.867L112.115 43.8761L109.286 46.7045ZM108.7 18.8932V45.2903H112.7V18.8932H108.7ZM84.3033 20.8932L110.7 20.8932V16.8932L84.3033 16.8932V20.8932ZM63.9959 1.41421L82.889 20.3074L85.7175 17.479L66.8243 -1.41421L63.9959 1.41421ZM47.9311 20.3074L66.8243 1.41421L63.9959 -1.41421L45.1027 17.479L47.9311 20.3074ZM18.3788 20.8932L46.5169 20.8932V16.8932L18.3788 16.8932V20.8932ZM20.3788 47.0312L20.3788 18.8932H16.3788L16.3788 47.0312H20.3788ZM1.54312 66.6954L19.793 48.4455L16.9646 45.617L-1.28531 63.867L1.54312 66.6954ZM19.7931 82.1169L1.54312 63.867L-1.28531 66.6954L16.9646 84.9453L19.7931 82.1169ZM20.3788 111.215L20.3788 83.5311H16.3788L16.3788 111.215H20.3788ZM46.0624 109.215H18.3788V113.215H46.0624V109.215Z" fill="#3C424A" mask="url(#path-1-inside-1)"/>
</svg>
