<svg width="124" height="124" viewBox="0 0 124 124" fill="none" xmlns="http://www.w3.org/2000/svg">
<mask id="path-1-inside-1" fill="white">
<path fill-rule="evenodd" clip-rule="evenodd" d="M81.7495 41.1138C106.308 43.9736 124 52.0203 124 61.5C124 70.9639 106.367 78.9996 81.8719 81.8719C78.9996 106.367 70.9639 124 61.5 124C52.0203 124 43.9736 106.308 41.1138 81.7495C17.1479 78.7766 0 70.8328 0 61.5C0 52.1515 17.2059 44.1965 41.2354 41.2354C44.1965 17.2059 52.1515 0 61.5 0C70.8328 0 78.7766 17.1479 81.7495 41.1138Z"/>
</mask>
<path d="M81.7495 41.1138L79.7647 41.36L79.9581 42.9187L81.5182 43.1004L81.7495 41.1138ZM81.8719 81.8719L81.639 79.8855L80.0695 80.0695L79.8855 81.639L81.8719 81.8719ZM41.1138 81.7495L43.1004 81.5182L42.9187 79.9581L41.36 79.7647L41.1138 81.7495ZM41.2354 41.2354L41.48 43.2204L43.0295 43.0295L43.2204 41.48L41.2354 41.2354ZM81.5182 43.1004C93.6668 44.5151 103.997 47.2021 111.227 50.6315C114.845 52.3477 117.592 54.2054 119.408 56.1011C121.214 57.9873 122 59.7975 122 61.5H126C126 58.4627 124.574 55.7122 122.296 53.3341C120.027 50.9655 116.816 48.8554 112.941 47.0174C105.185 43.3385 94.3907 40.5723 81.9809 39.1272L81.5182 43.1004ZM122 61.5C122 63.1997 121.217 65.0067 119.417 66.8896C117.607 68.782 114.87 70.637 111.263 72.3515C104.056 75.7774 93.756 78.4647 81.639 79.8855L82.1048 83.8583C94.4827 82.4069 105.247 79.6401 112.98 75.9641C116.844 74.1276 120.045 72.0197 122.308 69.654C124.579 67.2787 126 64.5322 126 61.5H122ZM79.8855 81.639C78.4647 93.756 75.7774 104.056 72.3515 111.263C70.637 114.87 68.782 117.607 66.8896 119.417C65.0067 121.217 63.1997 122 61.5 122V126C64.5322 126 67.2787 124.579 69.654 122.308C72.0197 120.045 74.1276 116.844 75.9641 112.98C79.6401 105.247 82.4069 94.4827 83.8583 82.1048L79.8855 81.639ZM61.5 122C59.7975 122 57.9873 121.214 56.1011 119.408C54.2054 117.592 52.3477 114.845 50.6315 111.227C47.2021 103.997 44.5151 93.6668 43.1004 81.5182L39.1272 81.9809C40.5723 94.3907 43.3385 105.185 47.0174 112.941C48.8554 116.816 50.9655 120.027 53.3341 122.296C55.7122 124.574 58.4627 126 61.5 126V122ZM41.36 79.7647C29.5064 78.2943 19.4604 75.6063 12.4409 72.2094C8.92832 70.5097 6.26715 68.6771 4.50946 66.8116C2.76144 64.9565 2 63.1766 2 61.5H-2C-2 64.4898 -0.617955 67.2027 1.59819 69.5547C3.80466 71.8965 6.92835 73.9856 10.6985 75.81C18.2444 79.4615 28.7553 82.2318 40.8676 83.7343L41.36 79.7647ZM2 61.5C2 59.8206 2.76402 58.0375 4.5183 56.179C6.2822 54.3103 8.95248 52.475 12.4763 50.7734C19.5183 47.373 29.5947 44.685 41.48 43.2204L40.9908 39.2504C28.8466 40.7469 18.3053 43.5169 10.737 47.1714C6.95566 48.9973 3.82261 51.0887 1.60947 53.4333C-0.613276 55.7881 -2 58.5051 -2 61.5H2ZM43.2204 41.48C44.685 29.5947 47.373 19.5184 50.7734 12.4763C52.475 8.95248 54.3103 6.2822 56.179 4.5183C58.0375 2.76402 59.8206 2 61.5 2V-2C58.5051 -2 55.7881 -0.613276 53.4333 1.60947C51.0887 3.82261 48.9973 6.95566 47.1714 10.737C43.5169 18.3053 40.7469 28.8466 39.2504 40.9908L43.2204 41.48ZM61.5 2C63.1766 2 64.9565 2.76144 66.8116 4.50946C68.6771 6.26715 70.5097 8.92831 72.2094 12.4409C75.6063 19.4604 78.2943 29.5064 79.7647 41.36L83.7343 40.8676C82.2318 28.7553 79.4615 18.2444 75.81 10.6985C73.9856 6.92834 71.8965 3.80466 69.5547 1.59819C67.2027 -0.617956 64.4898 -2 61.5 -2V2Z" fill="#FA5C45" mask="url(#path-1-inside-1)"/>
</svg>
